<?xml version="1.0" encoding="UTF-8"?>
<svg xmlns="http://www.w3.org/2000/svg" id="Layer_1" viewBox="0 0 300 300">
  <defs>
    <style>.cls-1{fill:#e5bf37;}.cls-2{fill:#f08536;}.cls-3{fill:#231f20;}.cls-4{fill:#d57c32;}.cls-5{fill:#fff;}.cls-6{fill:#d772ad;}.cls-7{fill:none;stroke:#9653a1;stroke-miterlimit:10;stroke-width:3.57px;}</style>
  </defs>
  <title>icon-Artboard 8</title>
  <circle class="cls-1" cx="252.14" cy="158.71" r="12.34" transform="translate(-2.32 3.75) rotate(-0.85)"></circle>
  <path class="cls-1" d="M251.13,121.89a14,14,0,0,0-13.84-14l-48-.3a14,14,0,0,0-14,13.84L175,167.57,251.09,129Z"></path>
  <path class="cls-2" d="M175.26,122.39l.26-42.46a4,4,0,0,1,6.81-2.77L197.8,92.83a4,4,0,0,1-.65,6.12L177.22,112C176.41,112.55,175.26,123.37,175.26,122.39Z"></path>
  <path class="cls-2" d="M251.13,121.89l.36-41.48a4,4,0,0,0-6.77-2.86L229.06,93a4,4,0,0,0,.57,6.13l19.77,13.32C250.21,113,251.13,122.86,251.13,121.89Z"></path>
  <path class="cls-1" d="M189.28,107.58l48,.3a14,14,0,0,1,13.81,13.42c0-.4,0-.79,0-1.19a38.13,38.13,0,0,0-37.89-38.37c-20.53-.13-36.62,16-37.53,36.32A14,14,0,0,1,189.28,107.58Z"></path>
  <path class="cls-1" d="M251.09,129l0-7.1c0-.2,0-.39,0-.59-.27-7.39-5.54-21-13-21H191.36c-6.5,0-14.09,11.74-15.64,17.77a13.79,13.79,0,0,0-.45,3.35L175,167.57l-2.31,1.17L251,175.87Z"></path>
  <circle class="cls-3" cx="196.33" cy="117.26" r="4.54" transform="translate(77.7 312.76) rotate(-89.6)"></circle>
  <circle class="cls-3" cx="229.33" cy="117.49" r="4.54" transform="translate(110.24 345.99) rotate(-89.6)"></circle>
  <path class="cls-3" d="M206.93,130.63a6.53,6.53,0,0,1-6.44-6.06,1,1,0,0,1,.9-1h.08a1,1,0,0,1,1,.9,4.55,4.55,0,0,0,9.09-.06,1,1,0,0,1,1-.92h0a1,1,0,0,1,.92,1A6.49,6.49,0,0,1,206.93,130.63Z"></path>
  <path class="cls-3" d="M218,130.71a6.53,6.53,0,0,1-6.44-6.06,1,1,0,0,1,.9-1h.08a1,1,0,0,1,1,.9,4.55,4.55,0,0,0,9.09-.06,1,1,0,0,1,1-.92h0a1,1,0,0,1,.92,1A6.48,6.48,0,0,1,218,130.71Z"></path>
  <path class="cls-3" d="M208.18,120.69c-.5,1.36,4.45,3.74,4.45,3.74s4.57-2.31,4.25-3.68C216.39,118.63,208.93,118.65,208.18,120.69Z"></path>
  <path class="cls-3" d="M249.47,136.26a.76.76,0,0,1-.26,0l-18.85-5.4a1,1,0,0,1,0-1.87l18.93-5.14a.94.94,0,0,1,1.19.68,1,1,0,0,1-.68,1.19l-15.56,4.23,15.5,4.44a1,1,0,0,1-.27,1.91Z"></path>
  <path class="cls-3" d="M177.3,135.69a1,1,0,0,1-.25-1.91l15.55-4.22-15.49-4.44a1,1,0,0,1-.67-1.2.94.94,0,0,1,1.2-.67l18.85,5.4a1,1,0,0,1,0,1.87l-18.93,5.14A1,1,0,0,1,177.3,135.69Z"></path>
  <path class="cls-4" d="M297.14,212.5c0-15.07-11.49-27.88-27.37-32.36-.11-.89-.23-1.78-.37-2.66-.19-1.36-.39-2.71-.63-4.07l-.34-2-.38-2-.19-1-.09-.51,0-.25a.82.82,0,0,0,0-.13.45.45,0,0,0-.23-.13l-.24-.06-.12,0-.18,0-.92-.13-.46-.06-.23,0-.43,0-1.79-.13-3.59-.25-.49,0-.87,0-1.73-.06-3.47-.13L246,166l-3.47-.13-1.73-.06-2.8-.06-24.59-.51h-.55l-24.59.51-2.8.06-1.73.06-3.47.13-6.94.25-3.47.13-1.73.06-.87,0-.49,0-3.59.25-1.79.13-.43,0-.23,0-.46.06-.92.13-.18,0-.12,0-.24.06a.45.45,0,0,0-.23.13.82.82,0,0,0,0,.13l0,.25-.09.51-.19,1-.38,2-.34,2c-.24,1.36-.44,2.71-.63,4.07s-.37,2.71-.54,4.07c-.67,5.42-1.09,10.85-1.25,16.27a161.11,161.11,0,0,0,2.22,32.54,145.29,145.29,0,0,0,9.58,32.54,134.72,134.72,0,0,0,8.33,16.27,98.29,98.29,0,0,0,12,16.27H239a98.29,98.29,0,0,0,12-16.27,134.72,134.72,0,0,0,8.33-16.27,142.91,142.91,0,0,0,6-17C283.51,242.66,297.14,228.92,297.14,212.5ZM268.34,233.8q.34-1.72.64-3.44a161.11,161.11,0,0,0,2.22-32.54c-.05-1.87-.15-3.75-.27-5.62,9,3.89,15.19,11.53,15.19,20.31C286.11,222.1,278.76,230.33,268.34,233.8Z"></path>
  <circle class="cls-1" cx="174.98" cy="162.61" r="12.34" transform="translate(-2.39 2.61) rotate(-0.85)"></circle>
  <circle class="cls-5" cx="204.68" cy="240.92" r="10.17" transform="translate(-64.2 407.17) rotate(-81.38)"></circle>
  <circle class="cls-5" cx="200.8" cy="225.66" r="4.05" transform="translate(-52.41 390.37) rotate(-81.38)"></circle>
  <circle class="cls-5" cx="210.34" cy="224.81" r="4.05" transform="translate(-43.46 399.07) rotate(-81.38)"></circle>
  <circle class="cls-5" cx="218.47" cy="230.43" r="4.05" transform="translate(-42.1 411.89) rotate(-81.38)"></circle>
  <circle class="cls-5" cx="219.79" cy="239.62" r="4.05" transform="translate(-50.06 421.01) rotate(-81.38)"></circle>
  <circle class="cls-5" cx="230.87" cy="212.56" r="10.17" transform="translate(-60.67 328.69) rotate(-64.35)"></circle>
  <circle class="cls-5" cx="215.15" cy="211.79" r="4.05" transform="translate(-68.9 314.09) rotate(-64.35)"></circle>
  <circle class="cls-5" cx="217.13" cy="202.43" r="4.05" transform="translate(-59.33 310.55) rotate(-64.35)"></circle>
  <circle class="cls-5" cx="224.88" cy="196.3" r="4.05" transform="translate(-49.41 314.07) rotate(-64.35)"></circle>
  <circle class="cls-5" cx="234.05" cy="197.72" r="4.05" transform="translate(-45.49 323.14) rotate(-64.35)"></circle>
  <circle class="cls-1" cx="101.05" cy="158.28" r="12.34" transform="translate(-2.33 1.51) rotate(-0.85)"></circle>
  <path class="cls-1" d="M100,121.46a14,14,0,0,0-13.84-14l-48-.3a14,14,0,0,0-14,13.84l-.29,46.15L100,128.56Z"></path>
  <path class="cls-1" d="M24.17,122l.26-42.46a4,4,0,0,1,6.81-2.77L46.71,92.4a4,4,0,0,1-.65,6.12L26.12,111.59C25.31,112.12,24.16,122.94,24.17,122Z"></path>
  <path class="cls-1" d="M100,121.46,100.4,80a4,4,0,0,0-6.77-2.86L78,92.59a4,4,0,0,0,.57,6.13L98.3,112C99.11,112.58,100,122.43,100,121.46Z"></path>
  <path class="cls-1" d="M38.18,107.15l48,.3A14,14,0,0,1,100,120.87c0-.4,0-.79,0-1.19A38.13,38.13,0,0,0,62.16,81.31c-20.53-.13-36.62,16-37.53,36.32A14,14,0,0,1,38.18,107.15Z"></path>
  <path class="cls-1" d="M100,128.56l0-7.1c0-.2,0-.39,0-.59-.27-7.39-5.54-21-13-21H40.26c-6.5,0-14.09,11.74-15.64,17.77a13.79,13.79,0,0,0-.45,3.35l-.29,46.15-2.31,1.17,78.36,7.13Z"></path>
  <circle class="cls-3" cx="45.23" cy="116.83" r="4.54" transform="matrix(0.01, -1, 1, 0.01, -71.91, 161.24)"></circle>
  <circle class="cls-3" cx="78.24" cy="117.06" r="4.54" transform="translate(-39.37 194.47) rotate(-89.6)"></circle>
  <path class="cls-3" d="M55.83,130.2a6.53,6.53,0,0,1-6.44-6.06,1,1,0,0,1,.9-1h.08a1,1,0,0,1,1,.9,4.55,4.55,0,0,0,9.09-.06,1,1,0,0,1,1-.92h0a1,1,0,0,1,.92,1A6.49,6.49,0,0,1,55.83,130.2Z"></path>
  <path class="cls-3" d="M66.86,130.28a6.53,6.53,0,0,1-6.44-6.06,1,1,0,0,1,.9-1h.08a1,1,0,0,1,1,.9,4.55,4.55,0,0,0,9.09-.06,1,1,0,0,1,1-.92h0a1,1,0,0,1,.92,1A6.48,6.48,0,0,1,66.86,130.28Z"></path>
  <path class="cls-3" d="M57.08,120.26c-.5,1.36,4.45,3.74,4.45,3.74s4.57-2.31,4.25-3.68C65.29,118.2,57.83,118.22,57.08,120.26Z"></path>
  <path class="cls-3" d="M98.38,135.83a.76.76,0,0,1-.26,0l-18.85-5.4a1,1,0,0,1,0-1.87l18.93-5.14a.94.94,0,0,1,1.19.68,1,1,0,0,1-.68,1.19l-15.56,4.23,15.5,4.44a1,1,0,0,1-.27,1.91Z"></path>
  <path class="cls-3" d="M26.21,135.26a1,1,0,0,1-.25-1.91l15.55-4.22L26,124.69a1,1,0,0,1-.67-1.2.94.94,0,0,1,1.2-.67l18.85,5.4a1,1,0,0,1,0,1.87l-18.93,5.14A1,1,0,0,1,26.21,135.26Z"></path>
  <path class="cls-6" d="M146,212.08c0-15.07-11.49-27.88-27.37-32.36-.11-.89-.23-1.78-.37-2.66-.19-1.36-.39-2.71-.63-4.07l-.34-2-.38-2-.19-1-.09-.51,0-.25a.82.82,0,0,0,0-.13.45.45,0,0,0-.23-.13l-.24-.06-.12,0-.18,0-.92-.13-.46-.06-.23,0-.43,0-1.79-.13-3.59-.25-.49,0-.87,0-1.73-.06-3.47-.13-6.94-.25-3.47-.13-1.73-.06-2.8-.06-24.59-.51h-.55l-24.59.51-2.8.06-1.73.06-3.47.13-6.94.25-3.47.13-1.73.06-.87,0-.49,0-3.59.25-1.79.13-.43,0-.23,0-.46.06-.92.13-.18,0-.12,0-.24.06a.45.45,0,0,0-.23.13.82.82,0,0,0,0,.13l0,.25-.09.51-.19,1-.38,2-.34,2c-.24,1.36-.44,2.71-.63,4.07s-.37,2.71-.54,4.07C4.58,186.54,4.15,192,4,197.39a161.11,161.11,0,0,0,2.22,32.54,145.29,145.29,0,0,0,9.58,32.54,134.72,134.72,0,0,0,8.33,16.27,98.29,98.29,0,0,0,12,16.27H88a98.29,98.29,0,0,0,12-16.27,134.72,134.72,0,0,0,8.33-16.27,142.91,142.91,0,0,0,6-17C132.42,242.23,146,228.49,146,212.08Zm-28.79,21.29q.34-1.72.64-3.44a161.11,161.11,0,0,0,2.22-32.54c-.05-1.87-.15-3.75-.27-5.62,9,3.89,15.19,11.53,15.19,20.31C135,221.67,127.67,229.9,117.25,233.37Z"></path>
  <circle class="cls-1" cx="23.89" cy="162.18" r="12.34" transform="translate(-2.4 0.37) rotate(-0.85)"></circle>
  <circle class="cls-5" cx="53.58" cy="240.49" r="10.17" transform="translate(-192.22 257.42) rotate(-81.38)"></circle>
  <circle class="cls-5" cx="49.71" cy="225.23" r="4.05" transform="translate(-180.43 240.62) rotate(-81.38)"></circle>
  <circle class="cls-5" cx="59.24" cy="224.38" r="4.05" transform="translate(-171.48 249.32) rotate(-81.38)"></circle>
  <circle class="cls-5" cx="67.37" cy="230" r="4.05" transform="translate(-170.13 262.14) rotate(-81.38)"></circle>
  <circle class="cls-5" cx="68.7" cy="239.19" r="4.05" transform="matrix(0.15, -0.99, 0.99, 0.15, -178.08, 271.26)"></circle>
  <circle class="cls-5" cx="79.78" cy="212.13" r="10.17" transform="translate(-145.98 192.24) rotate(-64.35)"></circle>
  <circle class="cls-5" cx="64.06" cy="211.36" r="4.05" transform="translate(-154.21 177.63) rotate(-64.35)"></circle>
  <circle class="cls-5" cx="66.03" cy="202" r="4.05" transform="translate(-144.65 174.1) rotate(-64.35)"></circle>
  <circle class="cls-5" cx="73.79" cy="195.87" r="4.05" transform="translate(-134.72 177.62) rotate(-64.35)"></circle>
  <circle class="cls-5" cx="82.96" cy="197.29" r="4.05" transform="translate(-130.8 186.69) rotate(-64.35)"></circle>
  <circle class="cls-7" cx="114.26" cy="242.14" r="19.85"></circle>
  <circle class="cls-7" cx="25.24" cy="89.38" r="19.85"></circle>
</svg>
