<?xml version="1.0" encoding="UTF-8"?>
<!-- Generator: Adobe Illustrator 20.1.0, SVG Export Plug-In . SVG Version: 6.00 Build 0)  -->
<svg xmlns="http://www.w3.org/2000/svg" xmlns:xlink="http://www.w3.org/1999/xlink" id="Layer_1" x="0px" y="0px" viewBox="0 0 300 300" style="enable-background:new 0 0 300 300;" xml:space="preserve">
<style type="text/css">
	.st0{fill:#E2C13F;}
	.st1{fill:#D57C32;}
	.st2{fill:#231F20;}
	.st3{fill:#D772AD;}
	.st4{fill:#FFFFFF;}
	.st5{fill:#2E2F78;}
	.st6{enable-background:new    ;}
</style>
<title>icon-Artboard 10</title>
<path class="st0" d="M279.7,195.8c2-3.9,0.5-8.7-3.4-10.8c0,0,0,0,0,0l-24.4-12.7c-3.9-2-8.7-0.5-10.8,3.4l-12.2,23.5l48.9,0.2  L279.7,195.8z"></path>
<path class="st1" d="M240.8,176.2l11.2-21.6c0.6-1.1,2-1.6,3.1-1c0.5,0.3,0.9,0.8,1.1,1.3l3.8,12c0.4,1.2-0.2,2.5-1.4,2.9  c-0.2,0.1-0.3,0.1-0.5,0.1l-13.6,1.4C244,171.5,240.6,176.7,240.8,176.2z"></path>
<path class="st1" d="M279.7,195.8l11-21.1c0.6-1.1,0.1-2.5-1-3.1c-0.5-0.3-1.1-0.3-1.7-0.2l-12,3.8c-1.2,0.4-1.9,1.7-1.5,2.9  c0,0.1,0.1,0.3,0.2,0.4l6.6,12C281.5,191,279.4,196.3,279.7,195.8z"></path>
<path class="st0" d="M270.8,165.4C270.8,165.4,270.8,165.4,270.8,165.4c-10.3-5.4-23.1-1.5-28.7,8.7c0.1-0.1,0.2-0.1,0.2-0.2  c-0.1,0.1-0.1,0.1-0.2,0.2c-0.4,0.5-0.8,1-1.1,1.6l-34.3,71.5l30.7,21.1l23.6-31.1l16.7-37.8l1.9-3.6c0-0.1,0.1-0.2,0.1-0.3  c0-0.1,0-0.1,0.1-0.2c0.1-0.2,0.2-0.3,0.3-0.5C285.7,184.1,281.6,170.9,270.8,165.4z M243.3,173c-0.1,0.1-0.2,0.2-0.3,0.3  C243.1,173.2,243.2,173.1,243.3,173z M244.3,172.4c0,0-0.1,0.1-0.1,0.1C244.2,172.4,244.3,172.4,244.3,172.4z"></path>
<ellipse transform="matrix(0.4625 -0.8866 0.8866 0.4625 -22.8486 320.786)" class="st2" cx="253.2" cy="179.2" rx="2.6" ry="2.6"></ellipse>
<ellipse transform="matrix(0.4625 -0.8866 0.8866 0.4625 -21.6022 340.3617)" class="st2" cx="269.9" cy="188" rx="2.6" ry="2.6"></ellipse>
<path class="st2" d="M255.1,188.9c-1.7-0.9-2.5-3-1.7-4.8c0.1-0.3,0.4-0.4,0.7-0.3l0,0c0.3,0.1,0.4,0.4,0.3,0.7  c-0.6,1.3,0,2.9,1.4,3.4c1.2,0.5,2.6,0.1,3.3-1.1c0.2-0.3,0.5-0.3,0.7-0.2l0,0c0.3,0.2,0.4,0.5,0.2,0.8  C259,189.1,256.8,189.7,255.1,188.9z"></path>
<path class="st2" d="M260.7,191.8c-1.7-0.9-2.4-3-1.7-4.8c0.1-0.3,0.4-0.4,0.7-0.3l0,0c0.3,0.1,0.4,0.4,0.3,0.7  c-0.6,1.3,0,2.9,1.4,3.4c1.2,0.5,2.6,0.1,3.3-1.1c0.2-0.3,0.5-0.3,0.7-0.2l0,0c0.3,0.2,0.4,0.5,0.2,0.8  C264.6,192,262.4,192.7,260.7,191.8z"></path>
<path class="st2" d="M258.3,184.1c-0.6,0.6,1.3,3.1,1.3,3.1s2.9,0,3.1-0.8C263,185.2,259.2,183.3,258.3,184.1z"></path>
<path class="st2" d="M275.3,202.9c0,0-0.1-0.1-0.1-0.1l-8.2-7.7c-0.3-0.2-0.4-0.5-0.2-0.8c0.1-0.2,0.4-0.3,0.7-0.2l11,2.3  c0.3,0.1,0.5,0.3,0.4,0.6c0,0,0,0,0,0c-0.1,0.3-0.3,0.5-0.6,0.4c0,0,0,0,0,0l-9-1.9l6.8,6.3c0.2,0.2,0.2,0.6,0,0.8  C275.9,202.9,275.6,202.9,275.3,202.9L275.3,202.9z"></path>
<path class="st2" d="M238.6,183.7c-0.2-0.2-0.3-0.5-0.1-0.8c0.1-0.1,0.3-0.2,0.5-0.2l9,1.9l-6.7-6.3c-0.2-0.2-0.2-0.6,0-0.8  c0.2-0.2,0.5-0.2,0.8,0c0,0,0,0,0,0l8.2,7.7c0.3,0.2,0.4,0.5,0.2,0.8c-0.1,0.2-0.4,0.3-0.7,0.2l-11-2.3L238.6,183.7z"></path>
<path class="st0" d="M226,140.5c-3.3-12.6-16.1-20.2-28.7-17l-78.8,20.2c-12.6,3.3-20.2,16.1-17,28.7l19.4,75.7l108.1-96L226,140.5z  "></path>
<path class="st3" d="M229,152.1l-3-11.7l-17.3-68.1c-0.9-3.6-4.6-5.8-8.2-4.8c-1.7,0.4-3.2,1.6-4.1,3.1l-12.9,21.8  c-11.5-3.9-24.2-4.7-36.8-1.4c-12.5,3.2-23,9.8-31,18.6L94.1,96.8c-1.6-0.9-3.4-1.2-5.2-0.7c-3.6,0.9-5.8,4.6-4.8,8.2l17.5,68.3  l22,92.7l96.3,2.7l39.6,3.7L229,152.1z"></path>
<ellipse transform="matrix(0.9633 -0.2684 0.2684 0.9633 -61.8973 37.9918)" class="st3" cx="108" cy="245.4" rx="20" ry="20"></ellipse>
<ellipse transform="matrix(0.9689 -0.2473 0.2473 0.9689 -34.4757 38.2645)" class="st2" cx="135.1" cy="156.4" rx="7.7" ry="7.7"></ellipse>
<ellipse transform="matrix(0.9689 -0.2473 0.2473 0.9689 -29.3721 51.2346)" class="st2" cx="189.2" cy="142.5" rx="7.7" ry="7.7"></ellipse>
<path class="st2" d="M158.2,173.7c-5.6,1.4-11.3-1.7-13.2-7.2c-0.3-0.9,0.2-1.8,1-2.1h0.1c0.8-0.2,1.7,0.2,2,1.1  c1.4,4,5.7,6.2,9.8,4.8c3.7-1.2,5.9-5,5.1-8.8c-0.2-0.9,0.4-1.7,1.2-1.9h0.1c0.9-0.2,1.8,0.4,1.9,1.3  C167.4,166.6,163.9,172.2,158.2,173.7z"></path>
<path class="st2" d="M176.3,169.1c-5.6,1.4-11.3-1.7-13.2-7.1c-0.3-0.9,0.2-1.8,1-2.1h0.1c0.8-0.2,1.7,0.2,2,1.1  c1.4,4,5.7,6.2,9.8,4.8c3.7-1.2,5.9-5,5.1-8.8c-0.2-0.9,0.4-1.7,1.2-1.9h0.1c0.9-0.2,1.8,0.4,1.9,1.3  C185.5,162,182,167.6,176.3,169.1z"></path>
<path class="st2" d="M156,156.9c-0.2,2.4,8.9,4.2,8.9,4.2s6.5-5.8,5.4-7.9C168.5,150,156.3,153.2,156,156.9z"></path>
<path class="st2" d="M230.3,164.6c-0.1,0-0.3,0-0.4,0l-33.2-0.7c-0.9,0-1.6-0.8-1.6-1.7c0-0.6,0.3-1.1,0.8-1.4l28.8-16.6  c0.7-0.5,1.7-0.2,2.2,0.5c0,0,0,0.1,0.1,0.1c0.5,0.8,0.2,1.8-0.6,2.2c0,0,0,0,0,0l-23.7,13.6l27.3,0.6c0.9,0,1.6,0.8,1.6,1.7  C231.5,163.7,231,164.4,230.3,164.6L230.3,164.6z"></path>
<path class="st2" d="M111.8,194.7c-0.9,0.2-1.8-0.4-1.9-1.3c-0.1-0.7,0.2-1.3,0.7-1.7l23.7-13.6l-27.3-0.6c-0.9,0-1.6-0.8-1.6-1.7  c0,0,0,0,0,0c0-0.9,0.7-1.6,1.6-1.6c0,0,0.1,0,0.1,0l33.2,0.7c0.9,0,1.6,0.8,1.6,1.7c0,0.6-0.3,1.1-0.8,1.4l-28.8,16.6  C112.1,194.6,112,194.7,111.8,194.7z"></path>
<path class="st0" d="M97.7,219.2c-0.2-7.9-6.7-14.2-14.6-14.1l-49.5,0.8c-7.9,0.2-14.2,6.7-14.1,14.6l0.8,47.6l77.5-41.5L97.7,219.2  z"></path>
<path class="st1" d="M97.8,226.5l-0.1-7.3c0,0,0,0,0,0l0,0c0-0.2,0-0.4,0-0.6c0,0,0-0.1,0-0.1l-0.6-42c-0.1-2.3-2-4-4.2-4  c-1,0-2,0.5-2.8,1.2l-10.8,11.1c-6.2-3.9-13.7-6.2-21.6-6.1c0,0,0,0,0,0c-7.9,0.1-15,2.6-21,6.6l-11-10.6c-0.8-0.8-1.8-1.2-2.9-1.2  c-2.3,0-4.1,1.9-4,4.2l0.7,42.7c0,0,0,0,0,0l0.2,75.2l56.4-1.9l24.6-31.9L97.8,226.5z M87.8,205.8C87.8,205.8,87.8,205.8,87.8,205.8  C87.8,205.8,87.8,205.8,87.8,205.8z M86.8,205.5c-0.1,0-0.2,0-0.3-0.1C86.6,205.5,86.7,205.5,86.8,205.5z M85.6,205.3  c-0.2,0-0.3,0-0.5-0.1C85.3,205.2,85.4,205.3,85.6,205.3z M84.4,205.1c-0.4,0-0.7,0-1.1,0C83.7,205.1,84,205.1,84.4,205.1z   M24,209.9c-0.2,0.2-0.4,0.4-0.6,0.6C23.5,210.3,23.7,210.1,24,209.9z M23.1,210.7c-0.2,0.2-0.4,0.4-0.6,0.7  C22.8,211.2,22.9,210.9,23.1,210.7z M22.4,211.6c-0.2,0.2-0.3,0.5-0.5,0.7C22.1,212.1,22.2,211.9,22.4,211.6z M21.7,212.6  c-0.2,0.2-0.3,0.5-0.4,0.8C21.4,213.1,21.6,212.8,21.7,212.6z M21.1,213.6c-0.1,0.3-0.3,0.5-0.4,0.8C20.9,214.1,21,213.9,21.1,213.6  z M20.6,214.7c-0.1,0.3-0.2,0.5-0.3,0.8C20.4,215.2,20.5,215,20.6,214.7z M33.6,205.9c-0.3,0-0.6,0-0.9,0.1  C33,205.9,33.3,205.9,33.6,205.9l49.5-0.8c0,0,0,0,0,0L33.6,205.9z M24.2,209.7c0.2-0.2,0.4-0.4,0.7-0.6  C24.6,209.3,24.4,209.5,24.2,209.7z M25.1,208.9c0.2-0.2,0.5-0.4,0.7-0.5C25.5,208.6,25.3,208.7,25.1,208.9z M26,208.3  c0.3-0.2,0.5-0.3,0.8-0.5C26.5,207.9,26.3,208.1,26,208.3z M27,207.7c0.3-0.1,0.5-0.3,0.8-0.4C27.5,207.4,27.3,207.5,27,207.7z   M28.1,207.1c0.3-0.1,0.6-0.2,0.8-0.3C28.6,206.9,28.3,207,28.1,207.1z M29.2,206.7c0.3-0.1,0.6-0.2,0.8-0.3  C29.7,206.5,29.5,206.6,29.2,206.7z M30.3,206.4c0.3-0.1,0.6-0.1,0.9-0.2C30.9,206.2,30.6,206.3,30.3,206.4z M31.5,206.1  c0.3,0,0.6-0.1,0.9-0.1C32.1,206,31.8,206.1,31.5,206.1z"></path>
<ellipse transform="matrix(0.9993 -3.769019e-02 3.769019e-02 0.9993 -9.8583 4.8543)" class="st1" cx="123.8" cy="263.9" rx="10" ry="10"></ellipse>
<ellipse transform="matrix(0.9999 -1.588183e-02 1.588183e-02 0.9999 -3.4214 0.6882)" class="st2" cx="41.6" cy="215.8" rx="4.7" ry="4.7"></ellipse>
<ellipse transform="matrix(0.9999 -1.588183e-02 1.588183e-02 0.9999 -3.4084 1.2283)" class="st2" cx="75.6" cy="215.2" rx="4.7" ry="4.7"></ellipse>
<path class="st2" d="M52.8,229.3c-3.5,0-6.4-2.6-6.8-6.1c-0.1-0.5,0.3-1,0.9-1.1c0,0,0,0,0,0h0c0.5,0,1,0.4,1,0.9  c0.2,2.6,2.5,4.5,5.1,4.3c2.4-0.2,4.2-2.2,4.3-4.5c0-0.6,0.4-1,1-1l0,0c0.6,0,1,0.4,1,1C59.3,226.3,56.4,229.2,52.8,229.3z"></path>
<path class="st2" d="M64.2,229.1c-3.5,0-6.5-2.6-6.8-6.1c-0.1-0.5,0.3-1,0.9-1.1c0,0,0,0,0,0h0.1c0.5,0,1,0.4,1,0.9  c0.2,2.6,2.5,4.5,5.1,4.3c2.4-0.2,4.2-2.2,4.3-4.5c0-0.6,0.4-1,1-1l0,0c0.6,0,1,0.4,1,1C70.7,226.1,67.8,229.1,64.2,229.1z"></path>
<path class="st2" d="M53.9,219c-0.5,1.4,4.7,3.8,4.7,3.8s4.7-2.5,4.3-3.9C62.3,216.7,54.6,216.9,53.9,219z"></path>
<path class="st2" d="M96.8,234.1c-0.1,0-0.2,0-0.3,0L77,228.9c-0.5-0.1-0.8-0.7-0.7-1.2c0.1-0.3,0.4-0.6,0.7-0.7l19.4-5.7  c0.5-0.2,1.1,0.1,1.2,0.7c0.2,0.5-0.1,1.1-0.7,1.2h0L81,227.9l16,4.2c0.6,0.1,0.9,0.6,0.9,1.1C97.8,233.8,97.3,234.2,96.8,234.1  L96.8,234.1z"></path>
<path class="st2" d="M22.4,235.2c-0.6,0.1-1.1-0.3-1.1-0.9c-0.1-0.6,0.3-1.1,0.9-1.1l15.9-4.7L22,224.3c-0.5-0.1-0.9-0.7-0.7-1.2  c0,0,0,0,0,0c0.1-0.5,0.7-0.9,1.2-0.7c0,0,0,0,0,0l19.5,5.1c0.5,0.1,0.8,0.7,0.7,1.2c-0.1,0.3-0.4,0.6-0.7,0.7l-19.3,5.7  C22.6,235.2,22.5,235.2,22.4,235.2z"></path>
<ellipse transform="matrix(0.9337 -0.358 0.358 0.9337 -76.9299 83.1051)" class="st4" cx="186" cy="249.3" rx="42.6" ry="46.8"></ellipse>
<rect x="4.2" y="260.8" class="st5" width="292.6" height="34.9"></rect>
<ellipse transform="matrix(0.9993 -3.769019e-02 3.769019e-02 0.9993 -9.6006 0.8446)" class="st1" cx="17.6" cy="255.1" rx="12.1" ry="12.1"></ellipse>
<ellipse transform="matrix(0.9633 -0.2684 0.2684 0.9633 -55.8561 77.2807)" class="st3" cx="254.7" cy="242.9" rx="21.8" ry="21.8"></ellipse>
<g class="st6">
	<path class="st5" d="M62.4,158c0,0.2-0.1,0.3-0.3,0.4c-0.2,0.1-0.4,0.2-0.6,0.2c-0.3,0.1-0.5,0.1-0.9,0.1c-0.3,0-0.6,0-0.9,0   c-0.7,0-1.5,0-2.2-0.1c-0.8-0.1-1.4-0.1-2-0.2v0v-4.2c0-2.8,0.1-5.6,0.3-8.3c0.2-2.7,0.3-5.5,0.3-8.3c0-0.1,0-0.3,0-0.4   s0-0.2,0-0.4c-0.1,0-0.3,0.1-0.4,0.3c-0.1,0.2-0.2,0.5-0.4,0.8c-0.1,0.3-0.3,0.6-0.5,0.8c-0.2,0.3-0.4,0.4-0.6,0.4   c-0.1,0-0.5-0.1-1-0.2c-0.5-0.1-1.1-0.3-1.8-0.4c-0.6-0.2-1.2-0.3-1.7-0.5c-0.5-0.2-0.7-0.3-0.7-0.5c0-0.3,0.2-0.8,0.4-1.4   c0.3-0.6,0.6-1.2,0.9-1.9c0.4-0.7,0.8-1.4,1.2-2.1c0.4-0.7,0.8-1.4,1.2-2c0.4-0.6,0.7-1.1,1-1.5s0.4-0.7,0.5-0.7c0.7,0,1.3,0,2-0.1   c0.6,0,1.3,0,2,0c0.7,0,1.5,0,2.2,0c0.7,0,1.5,0.1,2.3,0.1c0.1,1.2,0.1,2.5,0.2,3.6c0,1.2,0,2.4,0,3.6c0,3.3-0.1,6.6-0.2,9.8   c-0.2,3.2-0.2,6.5-0.2,9.8c0,0.5,0,1,0,1.5S62.4,157.5,62.4,158z"></path>
</g>
<g class="st6">
	<path class="st5" d="M152.5,75.9l-16.4,0.2h-1.9c0,0,0-0.1,0-0.1c0.1-1,0.1-1.9,0.1-2.9c0-0.9,0-1.9,0.1-2.8   c0.1-0.9,0.2-1.8,0.4-2.6c0.2-0.8,0.5-1.6,1-2.4c0.7-0.8,1.4-1.4,2.2-2c0.8-0.6,1.5-1.1,2.3-1.6c0.8-0.5,1.6-1,2.4-1.4   c0.8-0.5,1.6-1,2.3-1.6c0.6-0.4,1-0.9,1.2-1.6c0.2-0.7,0.3-1.3,0.3-2c-0.1-0.7-0.3-1.2-0.7-1.7c-0.4-0.5-0.9-0.8-1.6-0.9   c-0.7,0-1.2,0.2-1.7,0.5c-0.4,0.3-0.7,0.8-0.9,1.3c-0.2,0.5-0.4,1.1-0.4,1.7c-0.1,0.6-0.1,1.2-0.2,1.7v0.1h0   c-1.3,0.1-2.4,0.2-3.4,0.3c-1,0.1-2,0-3-0.1h0v-0.1c-0.3-2-0.3-3.8,0-5.6c0.4-1.7,1.1-3.2,2.1-4.4c0.6-0.7,1.4-1.3,2.5-1.7   c1.1-0.4,2.2-0.7,3.4-0.8c1.2-0.1,2.4-0.1,3.6,0c1.2,0.1,2.1,0.4,2.9,0.7c1.3,0.7,2.3,1.6,3,2.9s1.1,2.7,1.3,4.3   c0,0.6,0.1,1.3,0.1,2c0,0.7,0,1.3,0,1.9c-0.1,1.1-0.4,2-0.8,2.7c-0.4,0.7-1,1.4-1.6,1.9c-0.6,0.5-1.4,1-2.2,1.4   c-0.8,0.4-1.6,0.8-2.4,1.2c-0.8,0.4-1.6,0.8-2.3,1.3s-1.4,1-1.9,1.6c-0.1,0.1-0.1,0.3-0.2,0.6c-0.1,0.3-0.2,0.5-0.3,0.8   c-0.1,0.3-0.1,0.5-0.1,0.7c0,0.2,0,0.4,0.2,0.4c1.9,0.1,3.7,0.1,5.4,0c1.7-0.1,3.4-0.1,5.3-0.1c0.2,0.6,0.3,1.2,0.3,2   c0,0.7,0,1.5,0,2.2c0,0.3,0,0.6,0,0.9c0,0.3,0,0.6,0.1,0.9C152.7,75.9,152.7,75.9,152.5,75.9z"></path>
</g>
<g class="st6">
	<path class="st5" d="M265.4,151.5c-0.4-0.4-0.7-0.9-1-1.4c-0.2-0.5-0.4-1.1-0.5-1.7c-0.1-0.7-0.2-1.3-0.2-2c0-0.7-0.1-1.5-0.2-2.4   c0,0,0,0,0,0h0c0.9,0.1,1.7,0,2.7-0.2c0.9-0.2,1.9-0.3,3-0.2h0l0,0c0.2,0.5,0.5,1,0.9,1.5c0.5,0.5,1,0.8,1.6,1   c0.6,0.2,1.2,0.3,1.7,0.2c0.6-0.1,1.1-0.4,1.5-1c0.3-0.6,0.5-1.2,0.4-2c-0.1-0.7-0.5-1.3-1.1-1.8c-0.6-0.5-1.4-0.7-2.3-0.7   s-1.7,0-2.4,0.2c-0.2-0.4-0.3-0.8-0.3-1.3c0-0.5,0-1,0-1.6c0-0.5,0.1-1.1,0.1-1.6c0-0.5,0-1,0-1.4v0c0.5-0.2,1.1-0.3,1.8-0.2   s1.4,0,2-0.1s1.2-0.3,1.6-0.6c0.4-0.3,0.6-1,0.6-1.9c0-1-0.3-1.6-0.9-1.9c-0.6-0.3-1.2-0.4-1.9-0.3c-0.7,0.1-1.4,0.4-2.1,0.9   c-0.7,0.5-1.1,1-1.3,1.6c-0.2,0-0.6,0-1.3,0s-1.2,0-1.9,0s-1.2,0-1.7,0c-0.5,0-0.8,0-0.8,0v-0.1c0-0.6,0-1.2-0.1-2   c-0.1-0.7,0-1.4,0.3-2c0.3-1.2,1-2.1,1.8-2.9c0.9-0.8,1.9-1.4,3-1.8c1.1-0.4,2.3-0.7,3.6-0.8c1.3-0.1,2.5,0,3.7,0.3   c1.2,0.3,2.3,0.7,3.2,1.3c1,0.6,1.7,1.3,2.2,2.2c0.3,0.5,0.5,1,0.5,1.5c0.1,0.5,0.1,1.1,0.1,1.6c0.1,2.4,0.1,4.9,0.1,7.2   s-0.1,4.7-0.2,7.1c-0.1,0.8-0.1,1.7-0.1,2.5c0,0.9-0.2,1.7-0.6,2.5c-0.4,0.9-1,1.8-1.7,2.5s-1.6,1.2-2.7,1.6   c-1.1,0.3-2.2,0.5-3.5,0.5c-1.3,0-2.4,0-3.5-0.2c-0.4-0.1-0.8-0.1-1.2-0.3c-0.4-0.1-0.8-0.2-1.2-0.3c-0.6-0.2-1.1-0.4-1.4-0.6   C265.7,151.7,265.5,151.5,265.4,151.5z"></path>
</g>
</svg>
