<?xml version="1.0" encoding="UTF-8"?>
<svg xmlns="http://www.w3.org/2000/svg" xmlns:xlink="http://www.w3.org/1999/xlink" id="Layer_1" viewBox="0 0 300 300">
  <defs>
    <style>.cls-1,.cls-10,.cls-11,.cls-12,.cls-6,.cls-7,.cls-8,.cls-9{fill:none;}.cls-2{clip-path:url(#clip-path);}.cls-3{fill:#e2c13f;}.cls-4{fill:#d772ad;}.cls-5{fill:#9653a1;}.cls-6,.cls-7,.cls-8{stroke:#d772ad;}.cls-10,.cls-11,.cls-12,.cls-6,.cls-7,.cls-8,.cls-9{stroke-linecap:round;stroke-linejoin:round;stroke-width:2px;}.cls-7{stroke-dasharray:3.91 3.91;}.cls-8{stroke-dasharray:3.96 3.96;}.cls-10,.cls-11,.cls-12,.cls-9{stroke:#2e2f78;}.cls-10{stroke-dasharray:3.9 3.9;}.cls-11{stroke-dasharray:4.08 4.08;}.cls-12{stroke-dasharray:3.97 3.97;}</style>
    <clipPath id="clip-path">
      <rect class="cls-1" x="-6.53" y="-8" width="314.5" height="314.5"></rect>
    </clipPath>
  </defs>
  <title>icon-Artboard 11</title>
  <g class="cls-2">
    <path class="cls-3" d="M182.82,112.66,185,78.48h0A10.92,10.92,0,1,0,164,77l-2.21,28.77L154,81l-.05-.17-1.87-6.13L141,37.94a3.68,3.68,0,0,0-6.78-.66L127.7,49.53a35.14,35.14,0,0,0-20.15.13A34.11,34.11,0,0,0,91.07,60.59L79,54.13a3.68,3.68,0,0,0-5.26,4.33l11.2,36.75h0L97.36,136.1l0,0,.1.31a186.08,186.08,0,0,1,85.32-23.71Zm.85-38.53a2.25,2.25,0,1,1-2.87-1.36A2.25,2.25,0,0,1,183.68,74.13Zm-5.94-5.49a2.25,2.25,0,1,1-1.36,2.87A2.25,2.25,0,0,1,177.73,68.64Zm-5.45-.6a2.25,2.25,0,1,1-1.35,2.87A2.25,2.25,0,0,1,172.28,68Zm.34,6.16a5.64,5.64,0,1,1-3.4,7.21A5.64,5.64,0,0,1,172.62,74.2ZM167.86,71a2.25,2.25,0,1,1-1.35,2.87A2.25,2.25,0,0,1,167.86,71Zm-16.37,5.86a.87.87,0,0,1,1.24.28.89.89,0,0,1-.28,1.24l-12.6,8L154.79,86a.9.9,0,0,1,.28,1.76.7.7,0,0,1-.24,0l-18.16.42a.9.9,0,0,1-.5-1.66Zm-6.73-10.21.23.76c0,.16-.13-.23-.4-.83Zm-9.91-20.47a2.09,2.09,0,0,1,3.84.37l3.39,11.23a35.47,35.47,0,0,0-9.91-6.58Zm-4,26.57a4.21,4.21,0,1,1-2.8,5.25A4.21,4.21,0,0,1,130.87,72.72ZM83.08,61.38l5.37,2.86a34.83,34.83,0,0,0-4.73,12.32L79.91,64A2.22,2.22,0,0,1,83.08,61.38Zm23.56,35.93-15.32,9.76a.93.93,0,0,1-.22.1.9.9,0,0,1-.74-1.62l12.59-8L88,97.88A.9.9,0,0,1,87.1,97a.87.87,0,0,1,.88-.92l18.16-.42a.9.9,0,0,1,.5,1.66Zm-2.58-7.66a4.21,4.21,0,1,1,2.8-5.25A4.21,4.21,0,0,1,104.06,89.66Zm15.9.67a6,6,0,0,1-11.43.62.91.91,0,0,1,.51-1.17l.07,0a.9.9,0,0,1,1.1.53,4.22,4.22,0,0,0,8-2.56.87.87,0,0,1,0-.43c-1.46-.29-4-.94-4-1.91.1-2,6.69-4.08,7.71-2.34.49.84-1.27,2.87-2.2,3.87a.89.89,0,0,1,.21.37v0h0a4.22,4.22,0,0,0,8-2.56.9.9,0,0,1,.61-1.08h0a.9.9,0,0,1,1.1.65,6,6,0,0,1-9.8,6Z"></path>
    <path class="cls-4" d="M88.45,64.25l-5.37-2.86A2.22,2.22,0,0,0,79.91,64l3.8,12.58A34.83,34.83,0,0,1,88.45,64.25Z"></path>
    <path class="cls-4" d="M145,67.37l-.23-.76-.17-.08C144.86,67.14,145,67.53,145,67.37Z"></path>
    <path class="cls-4" d="M142.08,57.75l-3.39-11.23a2.09,2.09,0,0,0-3.84-.37l-2.67,5A35.47,35.47,0,0,1,142.08,57.75Z"></path>
    <circle cx="102.84" cy="85.63" r="4.21" transform="translate(-20.46 33.61) rotate(-16.91)"></circle>
    <circle cx="132.09" cy="76.74" r="4.21" transform="matrix(0.96, -0.29, 0.29, 0.96, -16.61, 41.73)"></circle>
    <path d="M129.76,84.33a.9.9,0,0,0-1.1-.65h0a.9.9,0,0,0-.61,1.08,4.22,4.22,0,0,1-8,2.56h0v0a.89.89,0,0,0-.21-.37c.93-1,2.69-3,2.2-3.87-1-1.74-7.61.33-7.71,2.34,0,1,2.52,1.61,4,1.91a.87.87,0,0,0,0,.43,4.22,4.22,0,0,1-8,2.56.9.9,0,0,0-1.1-.53l-.07,0a.91.91,0,0,0-.51,1.17A6,6,0,0,0,120,90.33a6,6,0,0,0,9.8-6Z"></path>
    <path d="M135.79,87.61a.9.9,0,0,0,.89.64l18.16-.42a.7.7,0,0,0,.24,0,.9.9,0,0,0-.28-1.76l-14.93.34,12.6-8a.89.89,0,0,0,.28-1.24.87.87,0,0,0-1.24-.28l-15.32,9.76A.9.9,0,0,0,135.79,87.61Z"></path>
    <path d="M106.13,95.66,88,96.08a.87.87,0,0,0-.88.92.9.9,0,0,0,.92.88l14.93-.34-12.59,8a.9.9,0,0,0,.74,1.62.93.93,0,0,0,.22-.1l15.32-9.76a.9.9,0,0,0-.5-1.66Z"></path>
    <circle class="cls-4" cx="174.53" cy="79.51" r="5.64" transform="translate(-16.6 63.68) rotate(-19.76)"></circle>
    <circle class="cls-4" cx="168.62" cy="73.08" r="2.25" transform="translate(-14.78 61.3) rotate(-19.76)"></circle>
    <circle class="cls-4" cx="173.04" cy="70.15" r="2.25" transform="translate(-13.53 62.63) rotate(-19.76)"></circle>
    <circle class="cls-4" cx="178.49" cy="70.75" r="2.25" transform="translate(-13.41 64.51) rotate(-19.76)"></circle>
    <circle class="cls-4" cx="181.56" cy="74.89" r="2.25" transform="translate(-14.63 65.79) rotate(-19.76)"></circle>
    <path class="cls-5" d="M483.17,360.75c-.78-8.31-1.17-16.68-2.48-24.91-1-6.41-3.09-12.66-4.84-18.94-1.63-5.85-3.37-11.69-5.24-17.47-1.22-3.76-2.84-7.39-4.17-11.12-.81-2.26-2.33-2.4-4.17-1.64-5.14,2.14-10.23,4.4-15.39,6.49-2.37,1-2.75,2.58-1.83,4.61,4.49,10,7.27,20.4,9.79,31,3.2,13.43,6,26.92,6.76,40.69a287.65,287.65,0,0,1-.31,29.73c-.42,8.44-1.83,22.18-2.85,30.57a47.22,47.22,0,0,1-1.07,6,2.11,2.11,0,0,1-.45.81,2.26,2.26,0,0,1-3.79-.59,1.64,1.64,0,0,1-.12-.8c.7-5,2-10,2.65-15a171.1,171.1,0,0,0,1.58-19.59c.08-11.85.44-23.8-.81-35.55-1.56-14.71-3.15-29.53-7.89-43.74a2.85,2.85,0,0,0-3.71-1.74c-4.16,1.54-8.35,3-12.61,4.26-9.52,2.75-19.09,5.32-28.63,8-5.33,1.5-4.12,4.85-.63,17.09a68.6,68.6,0,0,1,2.12,13.15c.17,2,1,4.34.79,6.5-.1.9-.91,2.29-1.59,2.41a3.37,3.37,0,0,1-2.6-1.43,7.44,7.44,0,0,1-.81-3.21c-.43-3.34-.61-6.73-1.21-10-1.16-6.43-2.53-12.82-3.84-19.22-.4-2-1.32-2.44-3.45-1.78-12.34,3.82-24.8,7.22-37.13,11.07-1.53.48-5.1,1.83-6.62,2.35a29.27,29.27,0,0,1-3.41.87c-1.83.38-2.94,0-3.68-2.28a89.51,89.51,0,0,0-4.23-11.12c-4.9-10.3-3.57-11.08-9.93-7.72-11.95,6.31-23.83,12.74-35.85,18.91-3.53,1.81-3.38,3.66-1.16,8.31A53.7,53.7,0,0,1,295,370.43c.79,5.06,1.88,6,5.36,5.68,14.06-1.43,28.13-2.7,42.2-4a14,14,0,0,1,4.3-.14,3.41,3.41,0,0,1,2,2.2c.14.54-.83,1.78-1.55,2.05a16.9,16.9,0,0,1-4.25.69c-13.91,1.33-27.81,2.61-41.72,4-4.36.42-4.36.47-4.53,4.81-.5,13.18-2.67,25.94-8.45,38-7.17,14.95-18.16,26.39-31.73,35.58-2.89,2-3.16,2.72-1.59,5.66,6.76,12.62,13.62,25.19,20.14,37.93,1.54,3,2.7,2.64,5.07,1.28a129.68,129.68,0,0,0,31.84-25.73c2.69-3,2.63-3.23-.67-5.94-4.3-3.53-8.74-6.91-12.88-10.62-1.1-1-4.23-1.6-2.38-4.15s3.55-.33,5,.83c4.24,3.39,8.37,6.91,12.57,10.36,3.73,3.06,3.9,3.16,6.6-.65,3.32-4.67,6.32-9.57,9.52-14.34,1-1.45,1.62-4.31,4-2.74,1.9,1.25.76,3.51-.35,5.15-3.47,5.15-6.9,10.34-10.52,15.37-2.33,3.24-.32,2.61,6.26,9.84,2.25,2.48,4.72,3.14,7,5.9,1.09,1.3,5.35,2.36,3.07,5.29-1.92,2.47-3.68-.06-5.18-1.27-3.82-3.11-7.56-6.32-11.32-9.5-4.4-3.7-5-3.69-8.81.58A118.63,118.63,0,0,1,285,506.34a164.83,164.83,0,0,1-21.7,11c-7.05,2.84-14.55,4.65-22,6.51A118.41,118.41,0,0,1,204.56,527c-9.48-.64-18.89-2.67-28.25-4.47-2.89-.56-4.09-.85-4.84,2.71a135.89,135.89,0,0,1-5.21,16.87c-.48,1.37-2.14,3.52-2.91,3.39-3.23-.58-1.85-2.67-1.15-4.74,1.84-5.43,3.37-11,5-16.46,1-3.19.41-4.44-2.73-5.49A128.3,128.3,0,0,1,127.6,499c-3.28-2.49-3.65-2.47-6.51,1-4,4.75-7.89,9.56-11.8,14.36-2.88,3.53-3,3.67-6.19.6q-8.47-8.11-16.65-16.51c-3.44-3.53-3.34-3.66-7.12-.66-4.24,3.37-8.45,6.78-12.67,10.18-.62.5-1.19,1.36-1.87,1.46a14.06,14.06,0,0,1-3.42-.32c.28-1,.27-2.26.9-2.85,2.67-2.48,5.53-4.76,8.34-7.1q4.78-4,9.57-7.93c2.73-2.24,3.38-2.13,5.87.45,5.31,5.5,10.6,11,16,16.38,3.61,3.56,3.76,3.48,6.9-.31q13.56-16.38,27.07-32.81c.81-1,1.86-1.77,2.57-2.81,1-1.4,1.65-.71,2.71-.1,1.41.83,1.3,1.46.38,2.58-1.82,2.21-3.48,4.56-5.28,6.8-2.49,3.09-4.93,6.24-7.63,9.15-1.56,1.69-1.71,2.66.22,4.16a128.52,128.52,0,0,0,38.09,20.53,2.73,2.73,0,0,0,3.47-1.83c4.09-13.71,8.31-27.38,12.51-41.06,1.46-4.74,1.46-4.69-3.22-6.6-19.88-8.14-34.29-22-44.12-41.12-4.57-8.9-6.39-18.34-8.58-27.82-.38-1.64-.08-3,1.66-3.42,2.23-.53,2.59,1.14,3,2.81,1,4.66,2.08,9.31,3.1,14,2,9.2,6.6,17.19,12,24.71a131.26,131.26,0,0,0,9.32,10.88c1.66,1.85,3.76,1.36,5.21-2a24.21,24.21,0,0,1,8.13-9.94c3.58-2.59,3.58-4.51,1.54-6.37-7-6.43-10.91-14.84-14.26-23.44a39.43,39.43,0,0,1-2.15-11.8c-.77-12.88,1.76-25,8.91-36,2.44-3.74,2.43-3.89-.88-6.65-11-9.15-22.06-18.17-33-27.38-2.11-1.78-3.25-1.5-4.79.54a110.63,110.63,0,0,0-15,28.17c-1.3,3.48,1.25,3.19,9.64,4.72a25.57,25.57,0,0,1,7.94,3.25c1,.55,2.78.71,3.72,1.63l.16.17a2.14,2.14,0,0,1-1.2,3.51,1.13,1.13,0,0,1-.36,0c-3.12-.68-6.17-1.65-9.23-2.57s-6-1.94-9.05-2.81c-3.26-.93-4.36-.45-5,2.79a120.14,120.14,0,0,0-2.35,15.09c-.4,5.74-.2,11.52,0,17.28.16,5.5,0,5.7-5.27,6.1-6.08.45-12.15,1.15-18.23,1.59-3.59.26-4.34,2.15-2,7.3A13.08,13.08,0,0,1,79.85,415a24.66,24.66,0,0,0,.87,6c1.45,7.82,1.29,7.81-6.33,9.46-4.34.94-8.52,2.62-12.8,3.88a36.76,36.76,0,0,1-6.53,1.53,1.16,1.16,0,0,1-.68-.18,2.12,2.12,0,0,1-.28-3.52,1.25,1.25,0,0,1,.32-.16c6.2-2,12.43-3.86,18.69-5.66,3.68-1.06,3.92-1.81,3-5.41-1.16-4.48-1.85-9.08-2.63-13.65s-.91-4.88-5.5-4.44Q45,405,22,407.34c-3.91.39-4.46-.06-4.53-4,0-2.56-.22-5.13-.23-7.69,0-7,.1-14-.05-21-.11-5-1.05-5.64-6-5.9-4.47-.24-8.94-.68-13.39-1.26-2.16-.28-3.35-.1-3.39,2.52-.06,4.19-.26,8.39-.73,12.55C-7.75,395.31-5.6,408-4,420.57c1,8.33,3.44,16.5,5.51,24.68a145.59,145.59,0,0,0,5.07,16.52c2.91,7.56,6.36,14.91,9.51,22.38,1.42,3.38,3.4,2.59,7.27-.15a46.62,46.62,0,0,1,11.38-5.69c3.49-1.25,2.93-3,2-5.18q-5.08-12.09-10-24.24a19.54,19.54,0,0,1-1.47-5.06,2.43,2.43,0,0,1,0-.58,2,2,0,0,1,3.42-1.11,1.53,1.53,0,0,1,.22.36c1.71,3.93,3.07,8,4.68,12,2.33,5.76,4.71,11.5,7.19,17.2.76,1.74,1.71,2.53,4,1.23,7.48-4.2,15.19-8,22.8-12q19.62-10.23,39.21-20.52c1.06-.56,2.93-1.73,4-2.32,1.64-.93,3.18-.8,3.84.83.27.67-1.08,2.53-2.11,3.12-5.25,3-10.54,5.92-16,8.43-3,1.35-3.08,3-1.66,5.25,2.9,4.57,6,9,9,13.52.62.93,1.6,1.75,1.87,2.77q0,.15.07.31c.33,1.88-1.86,3.42-3.34,2.21a1.57,1.57,0,0,1-.29-.3c-3.89-5.42-7.73-10.9-11.18-16.6-1.42-2.35-2.52-2.89-4.9-1.61Q64.63,467.6,43.13,479q-21,11.15-42.19,22.12c-5.71,2.94-5.62,3.15-2.39,8.73,7.69,13.3,16.27,26,26.52,37.41,7.86,8.74,16.46,16.82,24.86,25.07,2.75,2.7,3.23,2.55,5.71-.34,3.42-4,6.65-8.14,10.12-12.08a3.54,3.54,0,0,0-.2-4.86c-8.25-8.13-16.28-16.48-24.38-24.76-.56-.57-1-1.23-1.58-1.79-1.13-1.14-1.85-2.22-.23-3.57,1.35-1.12,2.26-.55,3.24.54,1.59,1.78,3.36,3.42,4.9,5.24a203.46,203.46,0,0,0,55.1,45.43c3.14,1.79,4.64,1,6.34-4.23a27.88,27.88,0,0,1,4.89-8.77c3.31-4.12,2.45-5.66-.47-7.58-8.12-5.33-16.08-10.89-24.06-16.41-1.46-1-4.06-2-2.35-4.26,2-2.59,4.68.74,6.33,1.58a92.23,92.23,0,0,1,13.44,7.91c15.39,11.38,12.77,10.47,17.22-.82a17,17,0,0,1,4.44-6.83c.93-.79,1.16-2.51,2.13-3.3.7-.57,2,.28,2.95,0,.26,1,.76,1.2.44,1.89-1.68,3.6-3.65,7.07-5.51,10.59-1.41,2.67-2.77,5.38-4.24,8-1,1.77-.66,2.43,1.31,3.42a186,186,0,0,0,44,15.73c6,1.32,12.15,2.21,18.22,3.36,1.69.32,2.25-.25,2.41-1.94.57-6,1.3-12,2-18,.07-.64,0-1.29.14-1.92.34-1.69,1-3.44,3.06-2.63.86.34,1.66,2.24,1.56,3.35-.54,6.21-1.22,12.43-2.14,18.59-.5,3.31.76,3.92,5.32,3.27a71.72,71.72,0,0,1,20.3-.3c2.8.41,6-.09,8.91.38,2.13.34,3.14,1.57,3.29,3.93.39,6.41,1.15,12.79,1.6,19.2.19,2.74,1.43,3.71,4,3.19,7.19-1.45,14.68-.71,21.7-3.69,4.06-1.73,8.62-2.26,13-3.26a5.84,5.84,0,0,1,2.83,0,2.46,2.46,0,0,1,1.5,1.57,2.24,2.24,0,0,1-1,1.82,18.34,18.34,0,0,1-4.85,2.06c-8.31,1.73-16.65,3.3-25,4.9-3,.57-6,.93-9,1.73a3.41,3.41,0,0,0-2,2.51c.35,5.93,1,11.83,1.53,17.75.19,2.22,1.76,2.59,3.41,2.44,2.7-.24,5.36-.8,8-1.17,3.34-.46,6.67-1,10-1.2a1.47,1.47,0,0,1,.71.17,2,2,0,0,1,0,3.45,1.58,1.58,0,0,1-.4.12c-9.15,1.5-18.3,3.34-27.52,4.12a241,241,0,0,1-43.6-.59,1.78,1.78,0,0,1-.41-.09,2,2,0,0,1,.19-3.78,1.79,1.79,0,0,1,.44-.05c5.27,0,10.54.58,15.8.57,8.17,0,16.33-.37,24.5-.56,3.05-.07,4.18-1.4,3.85-4.57-1.43-13.89-2.71-27.8-3.94-41.71-.24-2.69-1-4.06-4.08-3.91-3.82.2-7.66-.28-11.48-.13a164.24,164.24,0,0,1-34.78-2.74,191.1,191.1,0,0,1-52.38-17.2c-4.22-2.1-4.44-1.92-6.64,2.1-2.91,5.31-5.91,10.57-8.72,15.93-1.86,3.54-2.43,4-5.48,2.06-8.65-5.45-17.22-11-25.81-16.59-.81-.52-1.53-1.17-2.3-1.74-6.46-4.79-4.79-3.55-13.5,6.4-2.26,2.58-4.31,5.33-6.36,8.08-1.72,2.32-3.31,3-5.57.95A287.55,287.55,0,0,1,15.61,542.8a263.9,263.9,0,0,1-27.25-42.59c-2.78-5.35-5.07-11-7.55-16.46a3.84,3.84,0,0,1-.59-2.28A10.3,10.3,0,0,1-18,478.92c.68.52,1.67.89,2,1.58,2.37,4.84,4.55,9.77,6.89,14.63s2.44,5,7.11,2.54c3.95-2.07,7.87-4.19,11.82-6.23,3.65-1.88,3.83-2.22,2.27-5.8-2.89-6.66-5.92-13.27-8.69-20A120.08,120.08,0,0,1-1,452.79C-2.27,448.4-3.7,444-4.64,439.54c-1.73-8.31-3.23-16.67-4.92-25-1-5.11-1-4.13-8.73-3.59-4.79.33-9.57.91-14.33,1.53-4.24.55-5.3-.23-5.35-3.94-.08-5.92-.28-11.84-.44-17.76,0-1-.18-1.92-.21-2.88,0-1.75-.39-4,2.17-3.85.79,0,2,2.24,2.09,3.54.52,5.27.79,10.56,1,15.86.13,3.35,1.44,4.58,6.25,3.27a34.65,34.65,0,0,1,11.4-1.08c4.19.27,5.5-.57,5.41-3.69q-.37-13.93-.34-27.88a51.36,51.36,0,0,1,1-9.5,2.57,2.57,0,0,1,2.64-2c8.42.65,16.83,1.52,25.24,2.38,2.8.29,4.05,1.88,3.67,5-.45,3.64-.51,9.65-.53,13.32,0,5,0,10,.22,15,.18,3.94.4,4,4.37,3.67,15.19-1.4,30.37-2.87,45.56-4.3,8-.75,16-1.45,24-2.25,4.46-.45,4.59-.63,4.33-5-1.61-27.43,7.15-51.45,23.89-72.85,2.84-3.63,2.87-3.56,6.51-.54q17.69,14.67,35.41,29.31c3.35,2.77,3.48,2.85,6.61-.23,12.28-12.12,27.4-16.88,44.13-15.85a50.07,50.07,0,0,1,26.32,9.08c3.5,2.5,3.59,2.45,6.43-1,9.07-10.91,18-21.9,27.21-32.72,2-2.42,1.84-3.72-.65-5.5-11.11-8-23-14.23-36.47-17-7.64-1.57-15.35-2.88-23.09-3.88-3.45-.44-7,.19-10.56.35a15.5,15.5,0,0,1-3.82.18,1.75,1.75,0,0,1-.45-.17,2.15,2.15,0,0,1-.39-3.5,1,1,0,0,1,.55-.25c5.27-.5,10.62-1.4,15.83-.93a164.3,164.3,0,0,1,18.26,2.75,107.53,107.53,0,0,1,34,13.12c12.48,7.55,10.62,9.87,15.28,4.26q14.21-17.1,28.38-34.22c3.09-3.73,4.14-3.83,7.66-.71a174.11,174.11,0,0,1,32.91,38.38c1.25,2,2.35,4.12,3.64,6.1,1,1.53,2.28,2,4.1,1,13.06-6.93,26.18-13.75,39.22-20.72,1.88-1,3.47-2.35.25-5.8a77.75,77.75,0,0,1-14.58-21.72c-3-7-4.2-6.39-10.69.21a25.13,25.13,0,0,1-8.73,6.26c-1,.42-2,1.92-3.1,2.13-.9.16.67.58,0,0-.35-.31.27-1.92.88-2.23,1.79-.89.62-2.65,2-4.13,11.4-12.59,14.51-10,9.92-15.15a252.46,252.46,0,0,0-37.35-34.2A210.07,210.07,0,0,0,283.67,181a183.53,183.53,0,0,0-44.8-10.2,13.56,13.56,0,0,1-4.41-1.14h0a2.12,2.12,0,0,1-.35-3.52,1.63,1.63,0,0,1,1-.45,45.75,45.75,0,0,1,8.5,1c8.4,1.77,16.76,3.72,25.14,5.58a14.71,14.71,0,0,1,2.82.43c3.08,1.4,4.2-.15,5-2.85,1.65-5.82,3.37-11.62,5.28-17.36.36-1.07,1.8-2.62,2.61-2.55,2.26.21,1.92,2.24,1.47,3.76-1.79,6.11-3.48,12.26-5.65,18.23-.95,2.6-.1,3.49,2,4.16A187.71,187.71,0,0,1,322.18,194c8.85,5.33,17.21,11.49,25.71,17.41,5.17,3.6,3.5,2.76,10.58-4.89a126.41,126.41,0,0,0,8.31-10.3c1.89-2.53,3.5-2.82,5.67-.8,5.26,4.88,10.6,9.67,15.78,14.64.84.8,1.68,2.93,1.27,3.45-1.46,1.83-2.87.74-4.32-.64-4-3.83-8.34-7.4-12.37-11.24-2.05-2-3.42-2-5.33.65a85.4,85.4,0,0,1-9.64,11.63c-2.53,2.48-1.93,3.55,0,5.41,11.15,10.67,22.63,21.09,31.52,33.83,5.54,7.94,10.72,16.15,16,24.29,2.2,3.41,2.22,3.51,5.83,1.6,5.34-2.81,10.67-5.64,16-8.4,1.46-.75,3.18-1.33,4.14.66s-.6,2.33-2,3.05c-10.12,5.34-20.19,10.8-30.29,16.18-12.63,6.74-25.29,13.42-37.91,20.18-3.28,1.75-3.92,1.64-5.91-1.56-7.31-11.77-14.71-23.48-24.53-33.41-3.37-3.41-6.79-6.76-10.3-10-3-2.8-3.18-2.79-6,.54-9.15,11-18.24,22-27.36,33q-16.44,19.84-32.91,39.66c-4.45,5.32-4.4,5.12.19,10.43,9.65,11.17,14.75,24,14.34,39-.34,12.37-3.92,23.58-11.47,33.32-6.22,8-13.65,14.74-23.61,18-3.31,1.07-6.62,2.12-10,3.06-3.84,1.08-4.32,1.6-3.94,5.72,1.31,14.23,2.68,28.45,4,42.68a14.9,14.9,0,0,1,0,4.29,2.07,2.07,0,0,1-4,.33,15.22,15.22,0,0,1-.79-4.22q-2.25-23.25-4.45-46.51c-.35-3.73.83-5,5-6a98,98,0,0,0,11.92-3.17c13.72-5.17,23-14.9,28.92-28.24,5.11-11.42,5.34-23.32,2.1-34.72-4.49-15.81-14.6-27.56-30.22-34.2a51.73,51.73,0,0,0-32.78-3,52.66,52.66,0,0,0-22.23,11.54A52,52,0,0,0,165,362.42a75.33,75.33,0,0,0-4,10.12c-3.32,9.41-2.73,19.15-.38,28.43a48.4,48.4,0,0,0,12.8,22.64c6.13,6.08,6.12,6.05.45,12.58q-4.53,5.21-8.95,10.52c-2.8,3.37-2.68,4.83,1.33,7,5.79,3.16,11.8,5.92,17.71,8.84a26,26,0,0,0,3.39,1.29c2,.68,2.36,2,1.67,4.14-1.62,5-3.11,10.06-4.65,15.1-3.17,10.32-6.27,20.67-9.58,30.95-.83,2.57.23,3.72,2.34,4.16,6.71,1.39,13.42,2.86,20.2,3.84,14.62,2.11,29.13-.2,43.47-2.46,8.23-1.3,16.07-5,24.08-7.7.6-.2,1.1-.69,1.69-.91,7.69-2.77,6.16-3.84,3.12-9.52q-10-18.72-19.93-37.51c-2.17-4.1-2.08-4.58,2.08-7.06a83.35,83.35,0,0,0,28.21-27.24c10.27-16.52,13.83-34.5,11.13-53.79a71.58,71.58,0,0,0-7.47-24.08c-1.66-3.11-1.18-4.49,2.28-6.33,12.65-6.74,25.33-13.42,38-20.14,2.07-1.1,5.4-2,5.77-3.51.41-1.7-1.8-4.14-3.07-6.13-2.41-3.74-5-7.39-7.49-11.07a10.5,10.5,0,0,1-1.81-2.79,3.09,3.09,0,0,1-.08-.46c-.18-1.72,1.65-3.14,3.05-2.12a1.28,1.28,0,0,1,.25.24c3.16,4,6.55,7.88,9,12.28,4.58,8.16,8.61,16.64,12.77,25,1,2,1.5,4.18,2.36,6.21.57,1.33,1.39,1.6,3,1.08,8.37-2.69,16.8-5.18,25.24-7.63,12.7-3.69,25.46-7.19,38.15-10.94,10.69-3.16,21.28-6.65,32-9.77,2.75-.8,3.29-2.26,2.51-4.56-1.17-3.44-2.6-6.79-3.8-10.23-.94-2.69-2.81-5.74-2.18-8.07.58-2.17,5.94-3.26,7.88-4.66a30.47,30.47,0,0,1,9.54-4.52c5.94-1.8,7-2.59,5.33-5.7-5.3-9.7-10.79-19.29-15.55-29.26a84.18,84.18,0,0,0-4.64-8.42c-.93-1.48-1.63-2.17-3.66-.68-5.64,4.13-11.76,7.62-17.44,11.71-2,1.41-3.31,1.22-4.48-.31q-7.22-9.48-14.12-19.19a2.85,2.85,0,0,1,.52-2.69,2.61,2.61,0,0,1,2.57.23c3.28,4.09,6.38,8.33,9.55,12.52a20.91,20.91,0,0,1,1.74,2.26c1.4,2.52,2.81,2.87,5.33,1,4.48-3.28,9.29-6.11,13.95-9.15,1.7-1.11,2-2,.6-4.09-18.35-26.68-41-49.08-67.14-68.06-2.57-1.87-3.89-1.44-5.53,1.21-3.19,5.17-6.78,10.09-10.18,15.13-2.31,3.42-3.38,3.68-7,1.57-7.31-4.24-14.54-8.63-22-12.66-5-2.71-10.4-4.74-15.43-7.43-1.48-.79-4.8-1.14-3.52-4.06,1.4-3.19,3.46-.61,5.14.1a241.81,241.81,0,0,1,35.4,18.77c2.54,1.62,3.84,1.23,5.33-1.13,2.83-4.45,5.81-8.81,8.78-13.17,1.4-2.06,1.52-3.23-1-4.91a254.36,254.36,0,0,0-55.15-27.15c-10.63-3.74-21.65-6.39-32.44-9.71-2.95-.91-4-.11-4.53,2.81-1.11,6.56-2.47,13.08-3.71,19.62-.55,2.92-1.7,3.63-5.32,3-5.47-1-10.9-2.26-16.41-3a155.74,155.74,0,0,0-18.16-1.41c-9.61-.09-19.22.37-28.83.51-3.08,0-4.16,1.22-3.83,4.42,1.46,14.05,2.68,28.13,4,42.19.4,4.15.51,4.13,4.85,4.07,1,0,2.76-.13,3.8-.24a115.75,115.75,0,0,1,27.17.92c7.27,1,14.64,1.62,21.79,3.2,28.19,6.22,54.11,17.49,76.87,35.54,2,1.59,4.24,2.89,6.08,4.63a1.2,1.2,0,0,1,.31.73,2.19,2.19,0,0,1-2.82,2.4h0a19,19,0,0,1-3.14-2.14c-7.61-5.23-15.25-10.42-22.84-15.69-2.09-1.45-3.42-1.44-4.73,1.07-3.82,7.34-7.87,14.56-11.78,21.86-3.55,6.62-7,13.29-10.54,19.91-1.84,3.43-2.17,3.43-6.05,1.87-8.11-3.25-16.11-6.85-24.41-9.49-6.49-2.06-13.36-3-20.08-4.27-14.18-2.76-28.39-1.64-42.43.6-7.63,1.22-15,3.94-22.45,6.34-4.07,1.33-7.83,3.61-11.87,5.07-2.54.92-2.3,2.21-1.37,4q5.08,9.72,10.19,19.42c3.34,6.33,6.83,12.58,10,19,1.36,2.71,2.4,3.59,5.66,2.1,12.94-5.91,26.79-7.54,40.83-6.93,5.84.25,11.63,2,17.39,3.24a1.48,1.48,0,0,1,.79.61,2.07,2.07,0,0,1-1,3.33,1.22,1.22,0,0,1-.36,0,78.61,78.61,0,0,1-8.86-1.52c-13.7-3.08-27.09-1.17-40.32,2.55a50,50,0,0,0-8.64,3.85c-4.22,2.12-5.63,1.65-7.86-2.58q-10.46-19.84-21-39.63c-1.82-3.41-2.69-3.67-5.85-1.83A136.39,136.39,0,0,0,115.13,292C98.94,308.1,88.2,327.39,81.61,349c-1.89,6.22-2.7,12.76-4,19.16-.13.63-.09,1.28-.22,1.91-1,5-2.17,5.65-7.14,5-5.73-.77-11.48-1.45-17.24-1.77-7.38-.41-8.7-1.79-7.32-9.13,1.23-6.56,2.7-13.07,4.1-19.59.92-4.29.64-4.86-3.62-6.16q-24.87-7.58-49.75-15.12c-5.93-1.8-11.92-3.43-17.76-5.49-2.24-.79-2.64-.13-3.14,1.75-2.85,10.62-5.78,21.22-6.84,32.22a48.53,48.53,0,0,1-1.29,8.48c-.4,1.4-2,3.59-2.91,3.51-2.37-.22-1.83-2.28-1.48-4.13,2.12-11.09,3.77-22.28,6.25-33.29a219.82,219.82,0,0,1,18.53-50.5c1-2,1.7-4.14,2.87-6,.71-1.15,1.11-3.45,3.43-2.27,2.07,1.05,1.26,2.51.51,4-2.29,4.73-4.65,9.44-6.69,14.27q-4.83,11.41-9.24,23c-1.23,3.22-.54,4.11,2.84,5.17q20.5,6.37,41,12.78c3,.93,3.47.57,5-3.18,3.55-8.51,6.82-17.16,10.85-25.44A166.57,166.57,0,0,1,66.1,257.68c5.42-5.84,11.2-11.35,16.92-16.91,3.74-3.63,3.78-3.57.53-7.51-3.55-4.3-7-8.69-10.51-13-1.12-1.37-2.8-2.83-.74-4.41,2.51-1.92,4.23,1.36,4.93,2.43A98.41,98.41,0,0,0,83,226.5c6.87,8.66,6.8,8.61,10.85,5.66,5.5-4,11.08-7.93,16.9-11.45,10.92-6.59,10.49-8.6,14-2.31,3.7,6.68,7.33,13.4,11,20.07,1.25,2.25.76,3.61-1.46,5-8.3,5.34-16.46,10.89-24.66,16.38-1.44,1-3.12,1.72-4-.16-.36-.72.63-2.71,1.55-3.37,6.2-4.44,12.45-8.84,18.89-12.93,7.11-4.51,4.87-2.56-1.17-16.33a21.38,21.38,0,0,0-2.38-3.9c-1.1-1.52-1.41-3.82-4-2.32-26.89,15.41-49.2,35.75-66.14,61.76a178.39,178.39,0,0,0-20.67,42.42c-1.49,4.59-1.35,3.75,5.62,6.1,4.6,1.55,9.27,2.89,13.94,4.19,4.31,1.2,5,2.26,4.18,5.9-1.92,8-3.75,16.11-5.43,24.21-.17.82.86,2.65,1.52,2.75,6.48.91,13,1.68,19.53,2.11.76.05,2.27-2.11,2.43-3.36,2.7-21.65,11-41.2,23.09-59.38,1-1.53,2.85-3.91,4-5.36,1.75-2.28,1.59-3.59-2.16-5.73a36,36,0,0,1-9.69-8.15c-4.42-5.26-4.27.28-9,5.95-3.2,3.84-5,8.27-8.94,11.24C69,306.77,68.6,312.33,65,310c-3-1.91.45-4.38,1.5-6,4.68-7.4,9.75-14.56,14.76-21.76,2.07-3,3.26-3.09,6.17-.71,5.07,4.14,10.15,8.26,15.1,12.55,2,1.72,3.14,1.79,5.05-.32A135.73,135.73,0,0,1,144,264.77a142.39,142.39,0,0,1,22.26-9.65c8.3-2.75,17-4.51,25.54-6.32,3.54-.75,4.31-2.3,3.7-6a72.9,72.9,0,0,1-1.08-9.46c-.41-11.36-2.61-12.32,3.62-12.55,9.75-.36,19.5-.47,29.25-.43,1.13,0,3.15,1.57,3.18,2.48.07,1.9-1.73,2.23-3.54,2.17-7.83-.25-15.67-.57-23.5-.52-4.65,0-4.7.31-4.34,4.71.4,4.8,1.05,9.58,1.29,14.39.16,3.17,1.55,4,4.54,4,5.44-.12,10.89,0,16.32.25,13.31.52,26.13,3.55,38.6,8.07,3.89,1.41,7.69,3.08,11.46,4.79,5.78,2.62,4.64,2.23,9-5.41,4.14-7.18,8-14.51,11.84-21.87,2.08-4,4.3-8,6.51-11.9,1.35-2.41.93-2.94-3.6-5.27a215,215,0,0,0-21.88-9.42c-3.63-1.39-3.65,0-4.14,1.49-1.61,5-3.09,10-4.64,15-.42,1.37-.63,3-1.46,4-.71.89-1.76.16-2.9.71-.21-1-1.25-1-1-1.84,1.62-5.65,3.37-11.27,5.16-16.87,1.49-4.67,1.4-4.84-3.38-6.18a193.1,193.1,0,0,0-43-6.49c-7.43-.37-14.69.19-22,.6-4.07.23-4.69-.21-5.1-4.44Q188.36,167.92,186,143c-.34-3.66,0-4.25,3.74-4.58,7.67-.68,15.4-1.9,23-1.56,13.67.61,27.45.72,40.88,4.08,4.31,1.08,5.6.12,6.6-4.25s2.05-8.66,3-13c.7-3.25,0-4.73-3.22-5.33-6.4-1.2-12.83-2.33-19.31-2.91-8.42-.76-16.9-1-25.35-1.4-.48,0-1.08.16-1.42-.06l-.53-.35a2.26,2.26,0,0,1,.55-4,2,2,0,0,1,.47-.06,235.36,235.36,0,0,1,43.85,3.71,289.51,289.51,0,0,1,52.76,14.68A275.07,275.07,0,0,1,388,172.55a270.39,270.39,0,0,1,44.59,46.35,279.61,279.61,0,0,1,24.19,37.75c6.61,12.54,12.86,25.24,17,38.83,3.5,11.42,7.08,22.84,10,34.42,2.21,8.8,3.6,17.82,5,26.79a116.77,116.77,0,0,1,1.42,16.3c.12,8-.55,16-.8,24-.19,5.92-.48,11.84-1.07,17.73a197.78,197.78,0,0,1-3.19,22.61c-2.4,11-5.38,21.92-8.49,32.76A245,245,0,0,1,462,507.77a277.3,277.3,0,0,1-66.25,87.58,289.44,289.44,0,0,1-53.58,37.27c-8.89,4.85-18.46,8.48-27.83,12.41-7.07,3-14.24,5.77-21.52,8.15-2.71.89-5.48,1.56-8.26,2.18-10.12,2.25-20.13,5.07-30.28,7.21a94.15,94.15,0,0,1-12.07,1.61c-5.63.44-11.29,1.38-16.94,1.34-7.78-.06-15.55-.59-23.33-1-3.94-.19-7.87-.52-11.81-.7a203.53,203.53,0,0,1-31.65-4.07,331.71,331.71,0,0,1-37.95-10.19,249.94,249.94,0,0,1-41.44-18.26A280.54,280.54,0,0,1,9.4,577.4a269.81,269.81,0,0,1-28.07-35c-7.2-10.83-13-22.59-19.28-34a108.8,108.8,0,0,1-7-14.66c-3.93-10.77-7.52-21.67-11-32.6-2-6.33-3.45-12.84-5.15-19.26a11.88,11.88,0,0,1-.3-1.51c-1.34-10.34-2.9-20.66-3.94-31a208,208,0,0,1-1-22.1c0-6.19.88-12.38,1.39-18.57s1-12.1,1.55-18.14c1.09-11.82,3.85-23.34,6.78-34.8A241.4,241.4,0,0,1-35,260c5.7-10.47,11.85-20.75,18.48-30.65A270.84,270.84,0,0,1,4.57,202.2a211.46,211.46,0,0,1,30.71-29.34c9.62-7.35,19.12-15,29.39-21.3,10.94-6.73,22.58-12.42,34.21-17.91,8.08-3.81,16.53-6.86,24.95-9.89a124.17,124.17,0,0,1,13.22-3.87c6.16-1.47,12.28-3.28,18.51-4.4,9.3-1.66,18.64-3,28-4.49a5.38,5.38,0,0,1,2.83.13,3.14,3.14,0,0,1,1.55,2c.1.45-.71,1.41-1.31,1.64a13.32,13.32,0,0,1-3.3.57c-5.58.64-11.22.94-16.73,2-6.57,1.21-13,3-19.53,4.6-4.82,1.16-9.72,2.09-14.44,3.58-6.36,2-12.52,4.68-18.91,6.6-3.23,1-3.14,2.67-2.2,5,2.35,5.76,4.72,11.51,7.24,17.19.69,1.56,1.05,3-.79,3.44a3.93,3.93,0,0,1-3.29-1.74c-1.83-3.72-3.26-7.63-4.85-11.46-.66-1.6-1.32-3.2-2.05-4.77a5,5,0,0,0-6.51-2.47A251.8,251.8,0,0,0,48,168.14c-10.81,8.23-20.81,17.58-30.69,26.94A170.88,170.88,0,0,0-5.53,221.47c-6.27,9-9.84,10.59-5.17,13.3,4.41,2.57,8.65,5.43,12.81,8.38,2.51,1.79,3.88,1.39,5.81-1.07,7.06-9,14-18.11,21.74-26.53,14.38-15.73,31-28.83,49-40.27,4.82-3.07,10-5.54,14.84-8.64,2.52-1.63,3.84-.74,4.91,1.3,3,5.64,5.82,11.33,8.66,17,1.88,3.78,2.31,4.12,6.12,2.54,5.88-2.45,11.61-5.25,17.5-7.67,3.66-1.51,7.47-2.68,11.27-3.83,3.19-1,3.89-1.78,3-5.21-1.09-4.2-2.59-8.29-3.88-12.43-.73-2.36-1.57-4.69-2.4-7s.15-3.78,2.46-4.32c5-1.16,10-2.22,15-3.45,2.16-.53,4.2-1.7,6.37-2a2.87,2.87,0,0,1,1.17.13c1.78.53,2.34,3,.78,4a1.36,1.36,0,0,1-.37.17c-5.24,1.47-10.56,2.7-15.89,3.81-4.52.94-5.1,1.77-3.55,5.76,1.19,3.06,2.26,6.19,3.18,9.35,3,10.4,5.75,20.89,8.83,31.27,2.73,9.18,5.74,18.28,8.62,27.41.24.76.76,1.59.62,2.28l0,.08a2.46,2.46,0,0,1-4.24,1.11h0a7.46,7.46,0,0,1-.94-2.69c-2.5-8.06-5-16.1-7.47-24.17-1.72-5.67-3.34-11.37-5-17.07-1.1-3.8-1.39-4.24-4.81-3-9,3.13-17.78,6.75-26.52,10.43a68.6,68.6,0,0,0-6.34,3.24c-2.52,1.38-3.87.28-4.84-1.57-3-5.62-5.77-11.32-8.65-17-1.91-3.75-3-4-6.59-1.91a257.56,257.56,0,0,0-53.75,41.1c-2.08,2.07-4.06,4.24-6,6.44C24.4,228,23,228.1,27,231.45c4.64,3.9,9.38,7.67,14,11.54,3.25,2.69,3.4,3.46.94,6.68a262.88,262.88,0,0,0-21.45,32.2c-.08.14-.16.28-.25.41-.86,1.3-1.47,3.19-3.6,1.9s-1.13-2.59-.18-4c5.64-8.65,11-17.5,16.91-25.95,5.17-7.37,5.45-7.17-1.56-13-2.69-2.23-5.43-4.39-8-6.71-2.13-1.89-3.7-1.7-5.42,1A72.84,72.84,0,0,1,12.93,243c-6.71,7.92-5.11,9-10.05,5.83q-7.83-5-15.6-10.17c-3.38-2.21-3.7-2.42-5.77,1.13-5.83,10-11.75,20-16.93,30.4A215.72,215.72,0,0,0-51.23,312.7c-2.74,10.62-4.4,21.51-6.89,32.19-3.36,14.45-2.8,29.23-3.86,43.86-.47,6.5.66,13.13,1.25,19.68C-60,416.75-59,425-58.2,433.36c.25,2.68,1.42,3.77,4,3.27,6.6-1.26,13.25-2.3,19.76-3.92,3-.74,4.43.21,5.09,2.64,1.38,5.09,2.48,10.26,3.7,15.4a46.69,46.69,0,0,0,1.54,6c.66,1.72.46,3.12-1.3,3.28a3.82,3.82,0,0,1-3.08-2,113.41,113.41,0,0,1-2.74-11.2c-2.17-10.38-2.06-10-12.82-7.46a48.5,48.5,0,0,1-8.15,1.06c-3,.19-4,1.6-3.32,4.39,1.17,5.16,1.9,10.46,3.58,15.44,4.12,12.22,8.37,24.41,13.13,36.39,5.18,13,12.16,25.18,19.66,37a274.39,274.39,0,0,0,71.35,75.66,15.88,15.88,0,0,1,2,1.3c1.94,1.94,3.27,1.21,4.58-.78,3.33-5.06,6.77-10,10.1-15.09,3.09-4.68,3.67-5,8.16-2C94,604,112.28,612.61,131.32,619.6c5.87,2.15,5.81,2.19,7.64-4.23,1.62-5.66,3.34-11.28,5-16.91.84-2.78,3.12-2.46,5.14-2.08,3.14.59,6.21,1.59,9.34,2.21,9.68,1.94,19.38,3.78,29.07,5.65.63.12,1.43-.08,1.88.25.69.5,1.57,1.32,1.58,2s-1,1.6-1.71,1.74a12.69,12.69,0,0,1-4.78.14c-10.74-2.2-21.45-4.51-32.16-6.86-2.93-.64-4.62.11-5.5,3-1.53,5-2.67,10.18-4.49,15.09-1,2.77.17,3.44,2.23,4,5.36,1.43,10.73,2.83,16.11,4.23.46.12,1,.12,1.43.22,1.67.35,2.79,1.43,2.09,3-.31.72-2.06,1.36-3,1.18a105.51,105.51,0,0,1-12.58-3c-11.76-3.84-23.66-7.4-35.11-12a200.51,200.51,0,0,1-35.87-18.91c-3.59-2.39-3.9-2.27-6.46,1.32q-4.27,6-8.41,12.1c-2,2.95-1.83,3.59,1.38,5.64a268.47,268.47,0,0,0,53,26.33,292.37,292.37,0,0,0,49.26,13.17c11.81,2.07,23.69,2.88,35.64,3.61,9.53.58,18.88-.31,28.3-.9a40.44,40.44,0,0,1,4.27.31,23.54,23.54,0,0,0,4.75,0c4.55-.74,9-2,13.59-2.47,10.38-1.13,20.43-3.66,30.51-6.22,3.37-.86,4.06-2.54,3.17-5.48-1.86-6.12-3.62-12.27-5.66-18.32-.75-2.22-.85-3.47,1.73-4.37,6-2.09,12-4.3,17.85-6.74,7.33-3,14.56-6.34,21.8-9.61,1.66-.75,2.2-1.8,1.11-3.81-6.89-12.73-13.62-25.55-20.39-38.34-1.75-3.31-2.42-3.43-6-2Q283,568.38,268.79,574c-2.44,1-3.86.09-4.6-2.51-1.89-6.58-3.84-13.14-5.65-19.74-.7-2.56-1.91-3.13-4.56-2.55-8.27,1.8-16.61,3.33-25,4.76-1.12.19-3.17-.43-3.51-1.23-.82-1.92.94-2.53,2.34-3.11a6.54,6.54,0,0,1,1.3-.39c9.09-1.7,18.42-2.53,27.28-5,8.68-2.47,17.07-6.14,25.37-9.79a144.5,144.5,0,0,0,30.81-18.93c4-3.1,4-3,7.06.82,3.88,4.85,7.88,9.62,11.67,14.54,1.72,2.23,2.93,2.46,5.23.49a179.37,179.37,0,0,0,40.51-49.27c1.06-1.89.92-2.68-.86-3.63-5.63-3-11.18-6.14-16.85-9.05-4.82-2.48-4.82-2.35-2.78-7q4.34-9.85,8.51-19.78c1.93-4.56,1.56-5.25-3-6.68q-21.15-6.59-42.29-13.21c-.45-.14-1.12,0-1.37-.33l-.32-.4a2.27,2.27,0,0,1,.9-3.52,1.15,1.15,0,0,1,.67-.06c6,1.59,11.91,3.44,17.84,5.22,5.52,1.65,4.46,1.32,6.6-7.36,1.18-4.79,1.91-9.67,2.62-14.54.36-2.48,1.57-3.05,3.55-2.81,7,.84,14,1.69,21,2.73a2.59,2.59,0,0,0,3.07-2.67q-.11-9.61-.15-19.21a61.83,61.83,0,0,1,.18-7.67,2.93,2.93,0,0,1,2.24-1.82,3,3,0,0,1,2.1,2,41.05,41.05,0,0,1,.43,7.19c-.09,6.71-.29,13.42-.46,20.12-.05,2.12,1.38,2.76,3.09,2.95,5.73.63,11.46,1.21,17.2,1.77,7.92.78,15.86,1.41,23.76,2.33,5.82.68,7,0,7-5.67,0-9-.28-17.92-.47-26.88,0-1.92-.24-3.85-.31-5.77-.06-1.75.35-3.33,2.47-3.37,1.93,0,2.23,1.44,2.3,3,.1,2.08.37,4.17.32,6.25-.29,12.34-.13,24.71-1.15,37-.77,9.32-3,18.52-4.73,27.75-.46,2.48-1.47,4.84-2.11,7.3a4.65,4.65,0,0,0,3.19,5.63c6.12,1.8,12.25,3.55,18.37,5.33,3.41,1,3.78,2,2.63,5.53A299.67,299.67,0,0,1,433,504.09a5,5,0,0,1-1.27,2c-.75.5-1.38-.4-2.29-.13-.27-.93-1.42-1.07-1.12-1.75,2.31-5.25,5-10.34,7.22-15.62q4.74-11.16,9-22.53c1.43-3.83.71-4.93-3.17-6.09-13.55-4.06-27.14-8-40.62-12.25-1.76-.56-5.93-.28-4.64-3.87,1-2.87,3.84-.81,5.83-.24,5.33,1.54,10.65,3.14,16,4.76,1.73.53,3.19.62,3.74-1.57,2.6-10.35,5.51-20.64,6.16-31.37.22-3.62-.23-3.92-3.9-4.28-7.64-.75-15.25-1.76-22.89-2.47-7.93-.74-15.89-1.14-23.81-1.93-6.51-.65-13-1.7-19.48-2.47-4.82-.57-7.62-1.32-8,6-.22,3.9-1.6,7.74-2.48,11.6A5.27,5.27,0,0,0,351,428c6,1.69,11.94,3.45,17.9,5.22,3.15.94,3.76,1.84,2.59,4.76-3,7.51-6.08,15-9.36,22.39-2,4.43-2.14,4.37,2.2,6.65q8.46,4.43,16.87,8.95c2.88,1.54,3.09,2.68,1.29,5.84-11.32,19.83-25.26,37.54-42.58,52.51-3.11,2.69-3.14,3-.61,6.07q14.78,18.16,29.61,36.29c2.14,2.62,2.24,3.73-.19,5.52-5.88,4.34-11.87,8.52-17.76,12.85-1.45,1.06-2.55,1.8-3.91-.09s.65-2.78,1.43-3.39c3.89-3,8-5.79,12-8.61,4.41-3.08,4.54-3.6,1.27-7.65q-21.61-26.77-43.27-53.51c-2.61-3.22-3-3.32-6.09-.85-11.45,9.07-24.4,15.53-37.53,21.65a82.07,82.07,0,0,1-9,3.14c-4.43,1.46-4.42,3.11-1.89,9.19a76.18,76.18,0,0,1,3.55,11.31c.63,2.59,1.52,3.15,3.6,2.26,9.34-4,18.72-8,28-12,3.21-1.39,4.1-.95,5.79,2.31,6.41,12.31,13,24.55,19.5,36.8,1.18,2.22,3.51,6.24,4.71,8.45s1,3.72-1.78,4.95c-9.33,4.07-18.5,8.49-27.83,12.56A96.53,96.53,0,0,1,289.15,625c-3.29,1-3.53,1.71-2.46,5.07q2.16,6.82,3.88,13.77c1.13,4.55,2,4.93,6.18,3.21,5-2,10.22-3.46,15.12-5.65,10.91-4.86,21.88-9.65,32.46-15.16,17.08-8.9,32.62-20.34,47.19-32.91a274.75,274.75,0,0,0,43.43-48c2.17-3,2.07-3.57-.9-5.6-4.36-3-8.92-5.66-13.15-8.8-2.53-1.87-3.81-1.2-5.32,1.11-7.21,11-16,20.77-25.09,30.2-.66.68-1.19,1.61-2,2l-.25.11c-1.66.7-3.57-1-2.85-2.62a1.33,1.33,0,0,1,.2-.33c3.63-4.26,7.51-8.31,11.3-12.43,2.84-3.09,2.88-3.14-.19-5.72q-7.28-6.12-14.67-12.12c-3-2.46-3.34-3.19-.84-6.22a199.78,199.78,0,0,0,21.27-31.68c.23-.41.7-.7.89-1.13.69-1.59,1.86-2.37,3.43-1.53,1.8,1,.94,2.27.18,3.62-5.66,10.19-11.73,20.12-19.07,29.22-.6.74-1.08,1.59-1.74,2.27-1.56,1.62-1.16,2.71,2.62,4.66A30.41,30.41,0,0,1,399.21,539c2.74,3.66,3.68,3,4.86,1.41,3.37-4.66,6.74-9.33,10.22-13.91,2.53-3.34,3.09-3.32,6.6-.92C426,529,431.22,532.47,436.33,536c2.27,1.57,3.93,1.52,5.52-1a302.57,302.57,0,0,0,21.6-40.94,279.87,279.87,0,0,0,16.33-52.36c2.42-11.16,2.84-22.75,4.43-34.11C486.4,391.92,484.94,376.32,483.17,360.75Z"></path>
    <circle class="cls-3" cx="90.1" cy="134.47" r="10.92" transform="matrix(0.95, -0.31, 0.31, 0.95, -37.42, 34.77)"></circle>
    <line class="cls-6" x1="33.47" y1="284.33" x2="34.63" y2="282.7"></line>
    <path class="cls-7" d="M36.89,279.51l26-36.64c.58-.87,1.19-1.87.63-2.75l-14.25-14.5c-.72-1.13-2.16-3.15-1.12-4l34.68-28.08a2.64,2.64,0,0,1,3.89.6L96,208.47"></path>
    <path class="cls-6" d="M97,210.11l1.09,1.68c-.59-.9-.18.05.49,1"></path>
    <path class="cls-8" d="M101.93,213.19l31.3-14.27a2.64,2.64,0,0,1,3.51,1.46l18,46.19a2.64,2.64,0,0,0,3.39,1.51l25.69-7.7c1.26-.48.74-3.36.41-4.66L165,160.65a2.64,2.64,0,0,1,2.47-3.29l8.24-1.35c3-1.25,1.09-4.52,1-6L173,130.5c-.09-1.46.1-2.92,1.56-3l24.26-3c1.4-.08,1.65-2.82,1.65-4.22v-8.7"></path>
    <line class="cls-6" x1="200.45" y1="109.57" x2="200.45" y2="107.57"></line>
    <path class="cls-9" d="M219.47,181.14s.7,0,2,.1"></path>
    <path class="cls-10" d="M225.34,181.53c18,1.52,73.22,8.7,109.63,41l14.54,12.88"></path>
    <line class="cls-11" x1="305.11" y1="245.3" x2="283.7" y2="277.63"></line>
    <path class="cls-9" d="M282.57,279.33l-1.1,1.67s-.63-.31-1.81-.84"></path>
    <path class="cls-12" d="M276,278.61c-12.74-5.19-46.21-16.66-83.58-11.92"></path>
    <path class="cls-9" d="M190.45,267l-2,.3"></path>
  </g>
</svg>
