<?xml version="1.0" encoding="UTF-8"?>
<svg xmlns="http://www.w3.org/2000/svg" id="Layer_1" viewBox="0 0 300 300">
  <defs>
    <style>.cls-1{fill:#9653a1;}.cls-11,.cls-12,.cls-13,.cls-2,.cls-5,.cls-6,.cls-7,.cls-8{fill:none;}.cls-11,.cls-12,.cls-13,.cls-2,.cls-5,.cls-6,.cls-7{stroke:#231f20;stroke-miterlimit:10;stroke-width:0.85px;}.cls-2{stroke-dasharray:4.51 4.51;}.cls-3{fill:#2e2f78;}.cls-4{fill:#e2c13f;}.cls-6{stroke-dasharray:4.5 4.5;}.cls-7{stroke-dasharray:4.65 4.65;}.cls-8{stroke:#fff;stroke-linecap:round;stroke-linejoin:round;stroke-width:2.27px;stroke-dasharray:5.67;}.cls-9{fill:#d57c32;}.cls-10{fill:#d772ad;}.cls-11{stroke-dasharray:2.44 2.44;}.cls-12{stroke-dasharray:4.46 4.46;}.cls-13{stroke-dasharray:4.63 4.63;}.cls-14{fill:#fff;}</style>
  </defs>
  <title>icon-Artboard 7</title>
  <circle class="cls-1" cx="187.75" cy="95.84" r="79.72" transform="translate(-19.33 56.41) rotate(-16.26)"></circle>
  <circle class="cls-2" cx="188.1" cy="95.93" r="91.91" transform="translate(-19.34 56.51) rotate(-16.26)"></circle>
  <circle class="cls-3" cx="183.23" cy="113.59" r="32.7" transform="translate(-1.17 1.9) rotate(-0.59)"></circle>
  <circle class="cls-3" cx="163.08" cy="67.15" r="13.03" transform="translate(-0.69 1.69) rotate(-0.59)"></circle>
  <circle class="cls-3" cx="192.9" cy="59.54" r="13.03" transform="translate(-0.61 2) rotate(-0.59)"></circle>
  <circle class="cls-3" cx="221.61" cy="73.19" r="13.03" transform="translate(-0.75 2.3) rotate(-0.59)"></circle>
  <circle class="cls-3" cx="230.55" cy="101.67" r="13.03" transform="translate(-1.04 2.39) rotate(-0.59)"></circle>
  <path d="M286.88,106.45c.74,2,.56,3-1,4.24-2.56,2.11-5.26,4-7.76,6.22-2.21,1.92-4.28,4-6.31,6.12a3.9,3.9,0,0,1-4.21,1.25,3.73,3.73,0,0,1-2.39-3.5,3.65,3.65,0,0,1,2.67-3.47,3.6,3.6,0,0,1,4.08,1.57l.29.44Zm-16.17,15a2,2,0,0,0-1.18-2.51,2,2,0,0,0-2.5,1.24,2,2,0,0,0,1.17,2.47A2,2,0,0,0,270.71,121.48Z"></path>
  <path d="M276.71,118.75l.48,2.17c1.86-.68,3.46-.47,4.67,1.13a3.61,3.61,0,0,1,.09,4.22,3.77,3.77,0,0,1-3.78,1.53,3.63,3.63,0,0,1-2.83-3,17.39,17.39,0,0,1-.2-4C275.22,120.12,276.05,119.56,276.71,118.75Zm.37,4.86a2,2,0,0,0,1.27,2.48,2,2,0,0,0,1.2-3.75A2,2,0,0,0,277.08,123.61Z"></path>
  <path d="M273.3,101.83c.32,1.6.61,3,.9,4.47.5,2.45,1,4.92,1.52,7.35a1.77,1.77,0,0,1-.77,2.22,8.35,8.35,0,0,0-.76.61c-1-3.82-1.9-7.54-2.8-11.28C271,103.63,272.15,102.81,273.3,101.83Z"></path>
  <polygon class="cls-4" points="204.23 203.08 30.56 210.53 33.9 288.46 47.43 287.88 47.43 287.88 57.62 287.45 109.14 285.24 118.02 284.86 118.02 284.86 179.75 282.21 188.6 281.83 188.6 281.83 207.57 281.02 204.23 203.08"></polygon>
  <polyline class="cls-5" points="211.38 197.92 211.28 195.65 209.01 195.75"></polyline>
  <line class="cls-6" x1="204.52" y1="195.94" x2="18.1" y2="203.93"></line>
  <polyline class="cls-5" points="15.86 204.03 13.59 204.12 13.69 206.39"></polyline>
  <line class="cls-7" x1="13.89" y1="211.03" x2="17.37" y2="292.25"></line>
  <polyline class="cls-5" points="17.47 294.57 17.57 296.83 19.83 296.74"></polyline>
  <polyline class="cls-6" points="24.32 296.54 32.96 296.17 44.57 295.68 103.21 293.16 113.32 292.73 183.59 289.72 193.66 289.29 210.74 288.55"></polyline>
  <polyline class="cls-5" points="212.99 288.46 215.25 288.36 215.16 286.09"></polyline>
  <line class="cls-7" x1="214.96" y1="281.45" x2="211.47" y2="200.24"></line>
  <polygon class="cls-8" points="197.68 208.2 37.52 215.06 40.48 284.09 52.95 283.55 52.95 283.55 62.36 283.15 109.87 281.11 118.06 280.76 118.06 280.76 174.99 278.32 183.14 277.97 183.14 277.97 200.64 277.22 197.68 208.2"></polygon>
  <path class="cls-9" d="M77.56,265.45a1.7,1.7,0,0,1-1.77-1.72c0-2.3,0-5.05-.15-7.88-.08-1.87-.19-3.76-.32-5.55a1.13,1.13,0,0,0-2.17-.35c-.84,2-1.73,4.19-2.57,6.39-1,2.67-2.3,6.66-2.91,8.53a1.56,1.56,0,0,1-1.41,1.07l-3.22.14A1.59,1.59,0,0,1,61.45,265c-.64-1.8-1.95-5.39-2.88-7.59S56.63,253,55.64,251a1.13,1.13,0,0,0-2.14.52c0,2.21.12,4.73.23,7.19.11,2,.24,4,.37,5.76A3.26,3.26,0,0,1,51,268h0a2.77,2.77,0,0,1-2.88-2.74c0-4.36-.17-9.64-.4-14.92l-.12-2.72c-.2-4.71-.48-9.31-.78-13.16a3.29,3.29,0,0,1,3.14-3.54l1,0a3.69,3.69,0,0,1,3.61,2.4c1.2,3.22,2.85,7.22,4.55,11.08,1.48,3.33,3,6.55,4.3,9.15a1.13,1.13,0,0,0,2.06-.09c1.14-2.88,2.39-6.21,3.57-9.62,1.16-3.22,2.68-8.08,3.61-11.11a4.11,4.11,0,0,1,3.75-2.9h.34a3.65,3.65,0,0,1,3.81,3.58c.08,4,.23,10.48.42,14.89l.14,3.16c.16,3.82.36,7.44.59,10.42a3.31,3.31,0,0,1-3.16,3.56Z"></path>
  <path class="cls-9" d="M111,261.45a1.67,1.67,0,0,1-1.6,1.84c-2.77.1-6.15.33-9.65.7s-7.36.9-10.68,1.44a1.67,1.67,0,0,1-1.94-1.53c-.29-4.2-.74-9.45-1.32-14.95-.59-5.69-1.32-11.59-2-16.89a1.67,1.67,0,0,1,1.55-1.89c3.07-.2,6.53-.49,9.85-.84s6.28-.71,8.8-1.09a1.67,1.67,0,0,1,1.91,1.48l.28,2.66a1.67,1.67,0,0,1-1.56,1.84c-2.12.12-4.82.33-7.41.6-2,.2-3.83.45-5.34.7a1.67,1.67,0,0,0-1.39,1.74c.1,1.85.28,5,.5,7v0a1.67,1.67,0,0,0,1.71,1.5c1.13,0,2.52-.13,4-.29,2.46-.26,5.16-.64,7.23-1a1.67,1.67,0,0,1,1.92,1.48l.28,2.69a1.67,1.67,0,0,1-1.57,1.84c-2.07.12-4.76.32-7.19.58-1.49.16-2.86.33-4,.52A1.67,1.67,0,0,0,92,253.5c.18,1.36.43,3,.6,4.09A1.67,1.67,0,0,0,94.27,259c1.24,0,2.85-.13,4.62-.31,3.31-.35,7.16-.92,9.93-1.35a1.67,1.67,0,0,1,1.92,1.48Z"></path>
  <path class="cls-9" d="M129.3,264.48c-9.35.4-17.19-5.38-17.74-18.2-.52-12.07,6.76-19.25,16.11-19.7,9.91-.47,17.17,4.84,17.74,18.24C146,258.82,138.66,264.08,129.3,264.48ZM128,232.29c-5.69.24-9.62,3.71-9.19,13.78s5.4,13.11,10.33,13c5.09-.13,9.62-3.71,9.19-13.82S133.67,232,128,232.29Z"></path>
  <path class="cls-9" d="M179.32,261.72a12.18,12.18,0,0,1-7.88-2.08,1.62,1.62,0,0,0-2,.09,11.86,11.86,0,0,1-7.5,2.74c-8.6.37-12.86-4.31-12.95-9.66-.1-4.55-.22-9.76-.43-14.66l-.14-3.3c-.12-2.84-.27-5.5-.46-7.76a1.46,1.46,0,0,1,1.46-1.52l3.72-.16a1.46,1.46,0,0,1,1.58,1.39c0,3.09.13,7,.31,11.06.21,4.85.52,9.88.83,13.75.28,3.24,2,5.49,5.84,5.33,2.95-.13,4.62-2.87,4.64-5.78,0-3.75-.11-8.29-.3-12.66l-.09-2c-.11-2.62-.28-5.13-.47-7.26a1.46,1.46,0,0,1,1.46-1.53l3.73-.16a1.46,1.46,0,0,1,1.58,1.38c0,2.1.06,4.58.17,7.2l.09,2.14c.19,4.41.48,9,.74,12.64.28,3.24,2,5.49,5.84,5.33s4.7-3.24,4.69-5.78c0-4.1-.09-8.92-.29-13.51-.16-3.75-.35-7.3-.63-10.19a1.46,1.46,0,0,1,1.46-1.54l3.63-.16a1.46,1.46,0,0,1,1.58,1.4c0,3,.09,6.66.25,10.47.25,4.76.56,9.79.89,14.1C191.09,256.26,188.11,261.34,179.32,261.72Z"></path>
  <path d="M21.78,276.71c.89,1.06,1,1.7.35,2.81-1.1,1.85-2.32,3.64-3.37,5.52-.93,1.66-1.73,3.4-2.5,5.13a2.53,2.53,0,0,1-2.3,1.7,2.42,2.42,0,0,1-2.23-1.61,2.37,2.37,0,0,1,.87-2.71,2.34,2.34,0,0,1,2.84.06l.28.2Zm-6.56,12.76a1.27,1.27,0,0,0-1.28-1.27,1.29,1.29,0,0,0-1.26,1.31A1.31,1.31,0,0,0,14,290.76,1.28,1.28,0,0,0,15.23,289.48Z"></path>
  <path d="M18.29,286.48l.77,1.22a2.4,2.4,0,0,1,3.1-.35,2.35,2.35,0,0,1,1,2.56,2.45,2.45,0,0,1-2,1.77,2.36,2.36,0,0,1-2.4-1.22,11.3,11.3,0,0,1-1-2.4C17.68,287.65,18.07,287.12,18.29,286.48Zm1.3,2.89a1.28,1.28,0,0,0,1.32,1.23,1.28,1.28,0,0,0-.1-2.56A1.27,1.27,0,0,0,19.59,289.37Z"></path>
  <path d="M12.46,276.89,14,279.43c.85,1.39,1.67,2.79,2.56,4.15a1.15,1.15,0,0,1,0,1.53,5.43,5.43,0,0,0-.33.54c-1.43-2.12-2.83-4.19-4.21-6.27C11.47,278.5,12,277.75,12.46,276.89Z"></path>
  <path class="cls-10" d="M60.62,108.43a14,14,0,0,0-9,6.63h0l-.1.16-5,8.45-8-4h0A14,14,0,0,0,23.4,143.24l36,25.86,17.24-41.66a14,14,0,0,0-16.06-19Z"></path>
  <polyline class="cls-5" points="45.77 115.86 44.63 117.81 42.6 116.79"></polyline>
  <line class="cls-11" x1="40.42" y1="115.69" x2="37.15" y2="114.04"></line>
  <path class="cls-5" d="M36.06,113.48l-2-1h0a18.62,18.62,0,0,0-2-1"></path>
  <path class="cls-12" d="M27.73,110.2a18.5,18.5,0,0,0-18.09,7.55A18.85,18.85,0,0,0,14,143.92l44.32,32"></path>
  <polyline class="cls-5" points="60.09 177.25 61.93 178.58 62.79 176.48"></polyline>
  <path class="cls-13" d="M64.54,172.19l20.18-49.26A18.79,18.79,0,0,0,63.33,97.48a18.48,18.48,0,0,0-12,8.83h0l-.13.22-4.29,7.33"></path>
  <path d="M75.76,94.68c1,0,1.42.17,1.76,1,.58,1.45,1.06,2.94,1.67,4.37.54,1.26,1.18,2.49,1.84,3.7a1.83,1.83,0,0,1,0,2.07,1.75,1.75,0,0,1-1.91.57,1.71,1.71,0,0,1-1.17-1.69,1.69,1.69,0,0,1,1.29-1.6l.24-.07Zm4.42,9.39a.92.92,0,0,0-1.29.17.94.94,0,0,0,.2,1.3,1,1,0,0,0,1.27-.17A.93.93,0,0,0,80.18,104.08Z"></path>
  <path d="M79.82,101l1,.1A1.74,1.74,0,0,1,82,99.16a1.7,1.7,0,0,1,1.9.56,1.77,1.77,0,0,1,.15,1.91,1.7,1.7,0,0,1-1.76.84A8.17,8.17,0,0,1,80.5,102C80.22,101.86,80.08,101.41,79.82,101Zm2.23.53a.93.93,0,0,0,1.29-.22.93.93,0,0,0-1.51-1.07A.92.92,0,0,0,82,101.53Z"></path>
  <path d="M71.75,100.1l2.13.24c1.17.13,2.34.28,3.51.37.47,0,.77.19.89.66a3.93,3.93,0,0,0,.16.43c-1.85-.12-3.65-.23-5.45-.36C72.23,101.38,72,100.76,71.75,100.1Z"></path>
  <circle class="cls-14" cx="24.06" cy="57.24" r="4.87" transform="translate(-33.33 80.94) rotate(-89.63)"></circle>
  <circle class="cls-14" cx="59.49" cy="57.47" r="4.87" transform="translate(1.64 116.59) rotate(-89.63)"></circle>
  <path class="cls-14" d="M35.45,71.59a7,7,0,0,1-6.92-6.5,1.06,1.06,0,0,1,1-1.12h.08a1,1,0,0,1,1,1,4.89,4.89,0,0,0,9.75-.07,1,1,0,0,1,1.05-1h0a1,1,0,0,1,1,1.1A7,7,0,0,1,35.45,71.59Z"></path>
  <path class="cls-14" d="M47.29,71.67a7,7,0,0,1-6.92-6.5,1.06,1.06,0,0,1,1-1.12h.08a1,1,0,0,1,1,1A4.89,4.89,0,0,0,52.21,65a1,1,0,0,1,1.05-1h0a1,1,0,0,1,1,1.1A7,7,0,0,1,47.29,71.67Z"></path>
  <path class="cls-14" d="M36.78,60.92c-.54,1.46,4.78,4,4.78,4s4.9-2.48,4.56-4C45.6,58.71,37.59,58.73,36.78,60.92Z"></path>
  <path class="cls-14" d="M81.12,77.61a.82.82,0,0,1-.28,0L60.6,71.78a1,1,0,0,1,0-2l20.32-5.53A1,1,0,0,1,82.2,65a1,1,0,0,1-.73,1.28L64.77,70.8l16.64,4.76a1,1,0,0,1-.29,2Z"></path>
  <path class="cls-14" d="M3.65,77A1,1,0,0,1,3.39,75l16.69-4.54L3.45,65.69a1,1,0,0,1-.72-1.29A1,1,0,0,1,4,63.69l20.24,5.79a1,1,0,0,1,0,2L3.93,77A1.09,1.09,0,0,1,3.65,77Z"></path>
</svg>
